<svg width="620" height="222" viewBox="0 0 620 222" fill="none" xmlns="http://www.w3.org/2000/svg">
<rect x="0.249756" y="0.25" width="619.5" height="221.5" rx="11.75" fill="url(#paint0_linear_1681_390)" stroke="#E2E8F0" stroke-width="0.5"/>
<rect x="98.2496" y="87.75" width="6.5" height="99" rx="3.25" fill="white" stroke="#E2E8F0" stroke-width="0.5"/>
<rect x="158.25" y="116.25" width="6.5" height="70.5" rx="3.25" fill="white" stroke="#E2E8F0" stroke-width="0.5"/>
<rect x="218.25" y="149.25" width="6.5" height="37.5" rx="3.25" fill="white" stroke="#E2E8F0" stroke-width="0.5"/>
<rect x="278.25" y="98.25" width="6.5" height="88.5" rx="3.25" fill="white" stroke="#E2E8F0" stroke-width="0.5"/>
<rect x="338.25" y="33.75" width="6.5" height="153" rx="3.25" fill="white" stroke="#E2E8F0" stroke-width="0.5"/>
<rect x="398.25" y="60.75" width="6.5" height="126" rx="3.25" fill="white" stroke="#E2E8F0" stroke-width="0.5"/>
<rect x="458.25" y="42.75" width="6.5" height="144" rx="3.25" fill="white" stroke="#E2E8F0" stroke-width="0.5"/>
<rect x="518.25" y="98.25" width="6.5" height="88.5" rx="3.25" fill="white" stroke="#E2E8F0" stroke-width="0.5"/>
<rect x="578.25" y="137.25" width="6.5" height="49.5" rx="3.25" fill="white" stroke="#E2E8F0" stroke-width="0.5"/>
<mask id="path-11-outside-1_1681_390" maskUnits="userSpaceOnUse" x="28.9999" y="179" width="7" height="9" fill="black">
<rect fill="white" x="28.9999" y="179" width="7" height="9"/>
<path d="M31.7333 183.528C31.7333 184.342 31.8 184.965 31.9335 185.398C32.0669 185.828 32.3404 186.043 32.7538 186.043C33.1672 186.043 33.4374 185.828 33.5643 185.398C33.6945 184.965 33.7596 184.342 33.7596 183.528C33.7596 182.675 33.6945 182.044 33.5643 181.634C33.4374 181.224 33.1672 181.019 32.7538 181.019C32.3404 181.019 32.0669 181.224 31.9335 181.634C31.8 182.044 31.7333 182.675 31.7333 183.528ZM32.7538 179.871C33.6555 179.871 34.287 180.188 34.6483 180.823C35.0129 181.458 35.1952 182.36 35.1952 183.528C35.1952 184.697 35.0129 185.597 34.6483 186.229C34.287 186.86 33.6555 187.176 32.7538 187.176C31.8521 187.176 31.219 186.86 30.8544 186.229C30.493 185.597 30.3124 184.697 30.3124 183.528C30.3124 182.36 30.493 181.458 30.8544 180.823C31.219 180.188 31.8521 179.871 32.7538 179.871Z"/>
</mask>
<path d="M31.7333 183.528C31.7333 184.342 31.8 184.965 31.9335 185.398C32.0669 185.828 32.3404 186.043 32.7538 186.043C33.1672 186.043 33.4374 185.828 33.5643 185.398C33.6945 184.965 33.7596 184.342 33.7596 183.528C33.7596 182.675 33.6945 182.044 33.5643 181.634C33.4374 181.224 33.1672 181.019 32.7538 181.019C32.3404 181.019 32.0669 181.224 31.9335 181.634C31.8 182.044 31.7333 182.675 31.7333 183.528ZM32.7538 179.871C33.6555 179.871 34.287 180.188 34.6483 180.823C35.0129 181.458 35.1952 182.36 35.1952 183.528C35.1952 184.697 35.0129 185.597 34.6483 186.229C34.287 186.86 33.6555 187.176 32.7538 187.176C31.8521 187.176 31.219 186.86 30.8544 186.229C30.493 185.597 30.3124 184.697 30.3124 183.528C30.3124 182.36 30.493 181.458 30.8544 180.823C31.219 180.188 31.8521 179.871 32.7538 179.871Z" fill="white"/>
<path d="M31.9335 185.398L31.4557 185.546L31.456 185.547L31.9335 185.398ZM33.5643 185.398L33.0855 185.254L33.0848 185.257L33.5643 185.398ZM33.5643 181.634L33.0867 181.782L33.0878 181.785L33.5643 181.634ZM34.6483 180.823L34.2138 181.071L34.2147 181.072L34.6483 180.823ZM34.6483 186.229L34.2153 185.979L34.2143 185.98L34.6483 186.229ZM30.8544 186.229L30.4204 186.477L30.4214 186.479L30.8544 186.229ZM30.8544 180.823L30.4208 180.574L30.4198 180.576L30.8544 180.823ZM31.2333 183.528C31.2333 184.359 31.3002 185.041 31.4557 185.546L32.4113 185.251C32.2998 184.89 32.2333 184.325 32.2333 183.528H31.2333ZM31.456 185.547C31.544 185.83 31.6928 186.089 31.9297 186.275C32.1704 186.464 32.457 186.543 32.7538 186.543V185.543C32.6372 185.543 32.5804 185.514 32.5476 185.489C32.511 185.46 32.4564 185.396 32.411 185.25L31.456 185.547ZM32.7538 186.543C33.0504 186.543 33.3376 186.464 33.5777 186.273C33.8141 186.085 33.9599 185.824 34.0438 185.54L33.0848 185.257C33.0418 185.402 32.989 185.464 32.9553 185.49C32.9252 185.514 32.8706 185.543 32.7538 185.543V186.543ZM34.0431 185.542C34.1944 185.04 34.2596 184.359 34.2596 183.528H33.2596C33.2596 184.326 33.1947 184.891 33.0855 185.254L34.0431 185.542ZM34.2596 183.528C34.2596 182.664 34.1953 181.969 34.0409 181.482L33.0878 181.785C33.1938 182.119 33.2596 182.687 33.2596 183.528H34.2596ZM34.042 181.486C33.9559 181.208 33.8068 180.955 33.5688 180.774C33.3291 180.592 33.0452 180.519 32.7538 180.519V181.519C32.8758 181.519 32.9337 181.548 32.9642 181.571C32.9964 181.595 33.0458 181.65 33.0867 181.782L34.042 181.486ZM32.7538 180.519C32.4621 180.519 32.1788 180.592 31.9386 180.772C31.7003 180.951 31.5482 181.202 31.458 181.479L32.4089 181.789C32.4522 181.656 32.5036 181.599 32.5386 181.572C32.5719 181.547 32.632 181.519 32.7538 181.519V180.519ZM31.458 181.479C31.2992 181.967 31.2333 182.664 31.2333 183.528H32.2333C32.2333 182.687 32.3008 182.121 32.4089 181.789L31.458 181.479ZM32.7538 180.371C33.5252 180.371 33.9634 180.631 34.2138 181.071L35.0828 180.576C34.6106 179.746 33.7858 179.371 32.7538 179.371V180.371ZM34.2147 181.072C34.5172 181.599 34.6952 182.4 34.6952 183.528H35.6952C35.6952 182.319 35.5086 181.317 35.0819 180.574L34.2147 181.072ZM34.6952 183.528C34.6952 184.657 34.5171 185.456 34.2153 185.979L35.0813 186.479C35.5087 185.738 35.6952 184.737 35.6952 183.528H34.6952ZM34.2143 185.98C33.9645 186.417 33.5264 186.676 32.7538 186.676V187.676C33.7846 187.676 34.6095 187.303 35.0823 186.477L34.2143 185.98ZM32.7538 186.676C31.9813 186.676 31.5404 186.417 31.2874 185.979L30.4214 186.479C30.8975 187.303 31.7229 187.676 32.7538 187.676V186.676ZM31.2884 185.98C30.989 185.457 30.8124 184.657 30.8124 183.528H29.8124C29.8124 184.737 29.9971 185.737 30.4204 186.477L31.2884 185.98ZM30.8124 183.528C30.8124 182.4 30.9889 181.598 31.2889 181.071L30.4198 180.576C29.9972 181.318 29.8124 182.32 29.8124 183.528H30.8124ZM31.2879 181.072C31.5415 180.631 31.9825 180.371 32.7538 180.371V179.371C31.7217 179.371 30.8964 179.746 30.4208 180.574L31.2879 181.072Z" fill="#E2E8F0" mask="url(#path-11-outside-1_1681_390)"/>
<mask id="path-13-outside-2_1681_390" maskUnits="userSpaceOnUse" x="29.9999" y="150.5" width="17" height="9" fill="black">
<rect fill="white" x="29.9999" y="150.5" width="17" height="9"/>
<path d="M30.6932 153.617V152.67C31.1327 152.65 31.4403 152.621 31.6161 152.582C31.896 152.52 32.1239 152.396 32.2997 152.211C32.4201 152.084 32.5113 151.915 32.5731 151.703C32.6089 151.576 32.6268 151.482 32.6268 151.42H33.7841V158.5H32.3583V153.617H30.6932ZM37.2997 155.028C37.2997 155.842 37.3664 156.465 37.4999 156.898C37.6333 157.328 37.9068 157.543 38.3202 157.543C38.7336 157.543 39.0038 157.328 39.1307 156.898C39.2609 156.465 39.326 155.842 39.326 155.028C39.326 154.175 39.2609 153.544 39.1307 153.134C39.0038 152.724 38.7336 152.519 38.3202 152.519C37.9068 152.519 37.6333 152.724 37.4999 153.134C37.3664 153.544 37.2997 154.175 37.2997 155.028ZM38.3202 151.371C39.2219 151.371 39.8534 151.688 40.2147 152.323C40.5793 152.958 40.7616 153.86 40.7616 155.028C40.7616 156.197 40.5793 157.097 40.2147 157.729C39.8534 158.36 39.2219 158.676 38.3202 158.676C37.4185 158.676 36.7854 158.36 36.4208 157.729C36.0594 157.097 35.8788 156.197 35.8788 155.028C35.8788 153.86 36.0594 152.958 36.4208 152.323C36.7854 151.688 37.4185 151.371 38.3202 151.371ZM42.8661 155.028C42.8661 155.842 42.9328 156.465 43.0663 156.898C43.1997 157.328 43.4732 157.543 43.8866 157.543C44.3 157.543 44.5702 157.328 44.6971 156.898C44.8274 156.465 44.8925 155.842 44.8925 155.028C44.8925 154.175 44.8274 153.544 44.6971 153.134C44.5702 152.724 44.3 152.519 43.8866 152.519C43.4732 152.519 43.1997 152.724 43.0663 153.134C42.9328 153.544 42.8661 154.175 42.8661 155.028ZM43.8866 151.371C44.7883 151.371 45.4198 151.688 45.7811 152.323C46.1457 152.958 46.328 153.86 46.328 155.028C46.328 156.197 46.1457 157.097 45.7811 157.729C45.4198 158.36 44.7883 158.676 43.8866 158.676C42.9849 158.676 42.3518 158.36 41.9872 157.729C41.6259 157.097 41.4452 156.197 41.4452 155.028C41.4452 153.86 41.6259 152.958 41.9872 152.323C42.3518 151.688 42.9849 151.371 43.8866 151.371Z"/>
</mask>
<path d="M30.6932 153.617V152.67C31.1327 152.65 31.4403 152.621 31.6161 152.582C31.896 152.52 32.1239 152.396 32.2997 152.211C32.4201 152.084 32.5113 151.915 32.5731 151.703C32.6089 151.576 32.6268 151.482 32.6268 151.42H33.7841V158.5H32.3583V153.617H30.6932ZM37.2997 155.028C37.2997 155.842 37.3664 156.465 37.4999 156.898C37.6333 157.328 37.9068 157.543 38.3202 157.543C38.7336 157.543 39.0038 157.328 39.1307 156.898C39.2609 156.465 39.326 155.842 39.326 155.028C39.326 154.175 39.2609 153.544 39.1307 153.134C39.0038 152.724 38.7336 152.519 38.3202 152.519C37.9068 152.519 37.6333 152.724 37.4999 153.134C37.3664 153.544 37.2997 154.175 37.2997 155.028ZM38.3202 151.371C39.2219 151.371 39.8534 151.688 40.2147 152.323C40.5793 152.958 40.7616 153.86 40.7616 155.028C40.7616 156.197 40.5793 157.097 40.2147 157.729C39.8534 158.36 39.2219 158.676 38.3202 158.676C37.4185 158.676 36.7854 158.36 36.4208 157.729C36.0594 157.097 35.8788 156.197 35.8788 155.028C35.8788 153.86 36.0594 152.958 36.4208 152.323C36.7854 151.688 37.4185 151.371 38.3202 151.371ZM42.8661 155.028C42.8661 155.842 42.9328 156.465 43.0663 156.898C43.1997 157.328 43.4732 157.543 43.8866 157.543C44.3 157.543 44.5702 157.328 44.6971 156.898C44.8274 156.465 44.8925 155.842 44.8925 155.028C44.8925 154.175 44.8274 153.544 44.6971 153.134C44.5702 152.724 44.3 152.519 43.8866 152.519C43.4732 152.519 43.1997 152.724 43.0663 153.134C42.9328 153.544 42.8661 154.175 42.8661 155.028ZM43.8866 151.371C44.7883 151.371 45.4198 151.688 45.7811 152.323C46.1457 152.958 46.328 153.86 46.328 155.028C46.328 156.197 46.1457 157.097 45.7811 157.729C45.4198 158.36 44.7883 158.676 43.8866 158.676C42.9849 158.676 42.3518 158.36 41.9872 157.729C41.6259 157.097 41.4452 156.197 41.4452 155.028C41.4452 153.86 41.6259 152.958 41.9872 152.323C42.3518 151.688 42.9849 151.371 43.8866 151.371Z" fill="white"/>
<path d="M30.6932 153.617H30.1932V154.117H30.6932V153.617ZM30.6932 152.67L30.671 152.17L30.1932 152.192V152.67H30.6932ZM31.6161 152.582L31.5082 152.094L31.5076 152.094L31.6161 152.582ZM32.2997 152.211L31.937 151.867L31.9367 151.867L32.2997 152.211ZM32.5731 151.703L33.0531 151.843L33.0543 151.839L32.5731 151.703ZM32.6268 151.42V150.92H32.1268V151.42H32.6268ZM33.7841 151.42H34.2841V150.92H33.7841V151.42ZM33.7841 158.5V159H34.2841V158.5H33.7841ZM32.3583 158.5H31.8583V159H32.3583V158.5ZM32.3583 153.617H32.8583V153.117H32.3583V153.617ZM31.1932 153.617V152.67H30.1932V153.617H31.1932ZM30.7154 153.169C31.1543 153.15 31.5015 153.12 31.7246 153.07L31.5076 152.094C31.3791 152.122 31.111 152.151 30.671 152.17L30.7154 153.169ZM31.724 153.07C32.0891 152.99 32.41 152.822 32.6627 152.555L31.9367 151.867C31.8378 151.971 31.7029 152.051 31.5082 152.094L31.724 153.07ZM32.6624 152.555C32.8499 152.357 32.9745 152.112 33.053 151.843L32.0932 151.563C32.048 151.717 31.9903 151.811 31.937 151.867L32.6624 152.555ZM33.0543 151.839C33.0918 151.706 33.1268 151.555 33.1268 151.42H32.1268C32.1268 151.407 32.1281 151.413 32.1222 151.444C32.1167 151.473 32.1072 151.513 32.0919 151.567L33.0543 151.839ZM32.6268 151.92H33.7841V150.92H32.6268V151.92ZM33.2841 151.42V158.5H34.2841V151.42H33.2841ZM33.7841 158H32.3583V159H33.7841V158ZM32.8583 158.5V153.617H31.8583V158.5H32.8583ZM32.3583 153.117H30.6932V154.117H32.3583V153.117ZM37.4999 156.898L37.0221 157.046L37.0224 157.047L37.4999 156.898ZM39.1307 156.898L38.6519 156.754L38.6512 156.757L39.1307 156.898ZM39.1307 153.134L38.6531 153.282L38.6542 153.285L39.1307 153.134ZM40.2147 152.323L39.7802 152.571L39.7811 152.572L40.2147 152.323ZM40.2147 157.729L39.7817 157.479L39.7807 157.48L40.2147 157.729ZM36.4208 157.729L35.9868 157.977L35.9878 157.979L36.4208 157.729ZM36.4208 152.323L35.9872 152.074L35.9862 152.076L36.4208 152.323ZM36.7997 155.028C36.7997 155.859 36.8666 156.541 37.0221 157.046L37.9777 156.751C37.8662 156.39 37.7997 155.825 37.7997 155.028H36.7997ZM37.0224 157.047C37.1104 157.33 37.2592 157.589 37.4961 157.775C37.7368 157.964 38.0234 158.043 38.3202 158.043V157.043C38.2036 157.043 38.1468 157.014 38.114 156.989C38.0774 156.96 38.0228 156.896 37.9774 156.75L37.0224 157.047ZM38.3202 158.043C38.6168 158.043 38.904 157.964 39.1441 157.773C39.3805 157.585 39.5263 157.324 39.6102 157.04L38.6512 156.757C38.6082 156.902 38.5554 156.964 38.5217 156.99C38.4916 157.014 38.437 157.043 38.3202 157.043V158.043ZM39.6096 157.042C39.7608 156.54 39.826 155.859 39.826 155.028H38.826C38.826 155.826 38.7611 156.391 38.6519 156.754L39.6096 157.042ZM39.826 155.028C39.826 154.164 39.7617 153.469 39.6073 152.982L38.6542 153.285C38.7602 153.619 38.826 154.187 38.826 155.028H39.826ZM39.6084 152.986C39.5223 152.708 39.3732 152.455 39.1352 152.274C38.8955 152.092 38.6116 152.019 38.3202 152.019V153.019C38.4422 153.019 38.5001 153.048 38.5306 153.071C38.5628 153.095 38.6122 153.15 38.6531 153.282L39.6084 152.986ZM38.3202 152.019C38.0286 152.019 37.7452 152.092 37.5051 152.272C37.2667 152.451 37.1146 152.702 37.0244 152.979L37.9753 153.289C38.0186 153.156 38.07 153.099 38.1051 153.072C38.1383 153.047 38.1984 153.019 38.3202 153.019V152.019ZM37.0244 152.979C36.8656 153.467 36.7997 154.164 36.7997 155.028H37.7997C37.7997 154.187 37.8672 153.621 37.9753 153.289L37.0244 152.979ZM38.3202 151.871C39.0916 151.871 39.5298 152.131 39.7802 152.571L40.6493 152.076C40.177 151.246 39.3522 150.871 38.3202 150.871V151.871ZM39.7811 152.572C40.0836 153.099 40.2616 153.9 40.2616 155.028H41.2616C41.2616 153.819 41.075 152.817 40.6483 152.074L39.7811 152.572ZM40.2616 155.028C40.2616 156.157 40.0835 156.956 39.7817 157.479L40.6477 157.979C41.0751 157.238 41.2616 156.237 41.2616 155.028H40.2616ZM39.7807 157.48C39.5309 157.917 39.0928 158.176 38.3202 158.176V159.176C39.351 159.176 40.1759 158.803 40.6487 157.977L39.7807 157.48ZM38.3202 158.176C37.5477 158.176 37.1068 157.917 36.8538 157.479L35.9878 157.979C36.4639 158.803 37.2893 159.176 38.3202 159.176V158.176ZM36.8548 157.48C36.5554 156.957 36.3788 156.157 36.3788 155.028H35.3788C35.3788 156.237 35.5635 157.237 35.9868 157.977L36.8548 157.48ZM36.3788 155.028C36.3788 153.9 36.5553 153.098 36.8553 152.571L35.9862 152.076C35.5636 152.818 35.3788 153.82 35.3788 155.028H36.3788ZM36.8543 152.572C37.1079 152.131 37.5489 151.871 38.3202 151.871V150.871C37.2881 150.871 36.4628 151.246 35.9872 152.074L36.8543 152.572ZM43.0663 156.898L42.5885 157.046L42.5888 157.047L43.0663 156.898ZM44.6971 156.898L44.2183 156.754L44.2176 156.757L44.6971 156.898ZM44.6971 153.134L44.2195 153.282L44.2206 153.285L44.6971 153.134ZM45.7811 152.323L45.3466 152.571L45.3476 152.572L45.7811 152.323ZM45.7811 157.729L45.3481 157.479L45.3471 157.48L45.7811 157.729ZM41.9872 157.729L41.5532 157.977L41.5542 157.979L41.9872 157.729ZM41.9872 152.323L41.5536 152.074L41.5527 152.076L41.9872 152.323ZM42.3661 155.028C42.3661 155.859 42.433 156.541 42.5885 157.046L43.5441 156.751C43.4326 156.39 43.3661 155.825 43.3661 155.028H42.3661ZM42.5888 157.047C42.6768 157.33 42.8256 157.589 43.0625 157.775C43.3032 157.964 43.5898 158.043 43.8866 158.043V157.043C43.77 157.043 43.7132 157.014 43.6804 156.989C43.6439 156.96 43.5892 156.896 43.5438 156.75L42.5888 157.047ZM43.8866 158.043C44.1832 158.043 44.4704 157.964 44.7105 157.773C44.9469 157.585 45.0927 157.324 45.1767 157.04L44.2176 156.757C44.1746 156.902 44.1218 156.964 44.0881 156.99C44.058 157.014 44.0034 157.043 43.8866 157.043V158.043ZM45.176 157.042C45.3272 156.54 45.3925 155.859 45.3925 155.028H44.3925C44.3925 155.826 44.3275 156.391 44.2183 156.754L45.176 157.042ZM45.3925 155.028C45.3925 154.164 45.3281 153.469 45.1737 152.982L44.2206 153.285C44.3266 153.619 44.3925 154.187 44.3925 155.028H45.3925ZM45.1748 152.986C45.0887 152.708 44.9396 152.455 44.7016 152.274C44.4619 152.092 44.178 152.019 43.8866 152.019V153.019C44.0086 153.019 44.0665 153.048 44.097 153.071C44.1292 153.095 44.1786 153.15 44.2195 153.282L45.1748 152.986ZM43.8866 152.019C43.595 152.019 43.3116 152.092 43.0715 152.272C42.8331 152.451 42.681 152.702 42.5908 152.979L43.5417 153.289C43.585 153.156 43.6364 153.099 43.6715 153.072C43.7047 153.047 43.7648 153.019 43.8866 153.019V152.019ZM42.5908 152.979C42.432 153.467 42.3661 154.164 42.3661 155.028H43.3661C43.3661 154.187 43.4336 153.621 43.5417 153.289L42.5908 152.979ZM43.8866 151.871C44.658 151.871 45.0962 152.131 45.3466 152.571L46.2157 152.076C45.7434 151.246 44.9186 150.871 43.8866 150.871V151.871ZM45.3476 152.572C45.65 153.099 45.828 153.9 45.828 155.028H46.828C46.828 153.819 46.6414 152.817 46.2147 152.074L45.3476 152.572ZM45.828 155.028C45.828 156.157 45.6499 156.956 45.3481 157.479L46.2141 157.979C46.6415 157.238 46.828 156.237 46.828 155.028H45.828ZM45.3471 157.48C45.0973 157.917 44.6592 158.176 43.8866 158.176V159.176C44.9174 159.176 45.7423 158.803 46.2151 157.977L45.3471 157.48ZM43.8866 158.176C43.1141 158.176 42.6732 157.917 42.4202 157.479L41.5542 157.979C42.0303 158.803 42.8557 159.176 43.8866 159.176V158.176ZM42.4212 157.48C42.1218 156.957 41.9452 156.157 41.9452 155.028H40.9452C40.9452 156.237 41.1299 157.237 41.5532 157.977L42.4212 157.48ZM41.9452 155.028C41.9452 153.9 42.1217 153.098 42.4217 152.571L41.5527 152.076C41.13 152.818 40.9452 153.82 40.9452 155.028H41.9452ZM42.4208 152.572C42.6743 152.131 43.1153 151.871 43.8866 151.871V150.871C42.8545 150.871 42.0292 151.246 41.5536 152.074L42.4208 152.572Z" fill="#E2E8F0" mask="url(#path-13-outside-2_1681_390)"/>
<mask id="path-15-outside-3_1681_390" maskUnits="userSpaceOnUse" x="28.9999" y="121.5" width="18" height="9" fill="black">
<rect fill="white" x="28.9999" y="121.5" width="18" height="9"/>
<path d="M30.3124 129.5C30.3254 128.992 30.4344 128.528 30.6395 128.108C30.8381 127.636 31.3068 127.137 32.0458 126.609C32.6871 126.15 33.1021 125.822 33.2909 125.623C33.5806 125.314 33.7255 124.975 33.7255 124.607C33.7255 124.308 33.6425 124.059 33.4764 123.86C33.3104 123.662 33.0728 123.562 32.7635 123.562C32.3404 123.562 32.0523 123.72 31.8993 124.036C31.8114 124.218 31.7593 124.508 31.743 124.905H30.3905C30.4133 124.303 30.5223 123.816 30.7177 123.445C31.0887 122.739 31.7479 122.386 32.6952 122.386C33.4439 122.386 34.0396 122.594 34.4823 123.011C34.925 123.424 35.1464 123.973 35.1464 124.656C35.1464 125.18 34.9901 125.646 34.6776 126.053C34.4725 126.323 34.1356 126.624 33.6669 126.956L33.1102 127.352C32.7619 127.599 32.5227 127.778 32.3925 127.889C32.2655 127.999 32.1581 128.128 32.0702 128.274H35.161V129.5H30.3124ZM37.2997 126.028C37.2997 126.842 37.3664 127.465 37.4999 127.898C37.6333 128.328 37.9068 128.543 38.3202 128.543C38.7336 128.543 39.0038 128.328 39.1307 127.898C39.2609 127.465 39.326 126.842 39.326 126.028C39.326 125.175 39.2609 124.544 39.1307 124.134C39.0038 123.724 38.7336 123.519 38.3202 123.519C37.9068 123.519 37.6333 123.724 37.4999 124.134C37.3664 124.544 37.2997 125.175 37.2997 126.028ZM38.3202 122.371C39.2219 122.371 39.8534 122.688 40.2147 123.323C40.5793 123.958 40.7616 124.86 40.7616 126.028C40.7616 127.197 40.5793 128.097 40.2147 128.729C39.8534 129.36 39.2219 129.676 38.3202 129.676C37.4185 129.676 36.7854 129.36 36.4208 128.729C36.0594 128.097 35.8788 127.197 35.8788 126.028C35.8788 124.86 36.0594 123.958 36.4208 123.323C36.7854 122.688 37.4185 122.371 38.3202 122.371ZM42.8661 126.028C42.8661 126.842 42.9328 127.465 43.0663 127.898C43.1997 128.328 43.4732 128.543 43.8866 128.543C44.3 128.543 44.5702 128.328 44.6971 127.898C44.8274 127.465 44.8925 126.842 44.8925 126.028C44.8925 125.175 44.8274 124.544 44.6971 124.134C44.5702 123.724 44.3 123.519 43.8866 123.519C43.4732 123.519 43.1997 123.724 43.0663 124.134C42.9328 124.544 42.8661 125.175 42.8661 126.028ZM43.8866 122.371C44.7883 122.371 45.4198 122.688 45.7811 123.323C46.1457 123.958 46.328 124.86 46.328 126.028C46.328 127.197 46.1457 128.097 45.7811 128.729C45.4198 129.36 44.7883 129.676 43.8866 129.676C42.9849 129.676 42.3518 129.36 41.9872 128.729C41.6259 128.097 41.4452 127.197 41.4452 126.028C41.4452 124.86 41.6259 123.958 41.9872 123.323C42.3518 122.688 42.9849 122.371 43.8866 122.371Z"/>
</mask>
<path d="M30.3124 129.5C30.3254 128.992 30.4344 128.528 30.6395 128.108C30.8381 127.636 31.3068 127.137 32.0458 126.609C32.6871 126.15 33.1021 125.822 33.2909 125.623C33.5806 125.314 33.7255 124.975 33.7255 124.607C33.7255 124.308 33.6425 124.059 33.4764 123.86C33.3104 123.662 33.0728 123.562 32.7635 123.562C32.3404 123.562 32.0523 123.72 31.8993 124.036C31.8114 124.218 31.7593 124.508 31.743 124.905H30.3905C30.4133 124.303 30.5223 123.816 30.7177 123.445C31.0887 122.739 31.7479 122.386 32.6952 122.386C33.4439 122.386 34.0396 122.594 34.4823 123.011C34.925 123.424 35.1464 123.973 35.1464 124.656C35.1464 125.18 34.9901 125.646 34.6776 126.053C34.4725 126.323 34.1356 126.624 33.6669 126.956L33.1102 127.352C32.7619 127.599 32.5227 127.778 32.3925 127.889C32.2655 127.999 32.1581 128.128 32.0702 128.274H35.161V129.5H30.3124ZM37.2997 126.028C37.2997 126.842 37.3664 127.465 37.4999 127.898C37.6333 128.328 37.9068 128.543 38.3202 128.543C38.7336 128.543 39.0038 128.328 39.1307 127.898C39.2609 127.465 39.326 126.842 39.326 126.028C39.326 125.175 39.2609 124.544 39.1307 124.134C39.0038 123.724 38.7336 123.519 38.3202 123.519C37.9068 123.519 37.6333 123.724 37.4999 124.134C37.3664 124.544 37.2997 125.175 37.2997 126.028ZM38.3202 122.371C39.2219 122.371 39.8534 122.688 40.2147 123.323C40.5793 123.958 40.7616 124.86 40.7616 126.028C40.7616 127.197 40.5793 128.097 40.2147 128.729C39.8534 129.36 39.2219 129.676 38.3202 129.676C37.4185 129.676 36.7854 129.36 36.4208 128.729C36.0594 128.097 35.8788 127.197 35.8788 126.028C35.8788 124.86 36.0594 123.958 36.4208 123.323C36.7854 122.688 37.4185 122.371 38.3202 122.371ZM42.8661 126.028C42.8661 126.842 42.9328 127.465 43.0663 127.898C43.1997 128.328 43.4732 128.543 43.8866 128.543C44.3 128.543 44.5702 128.328 44.6971 127.898C44.8274 127.465 44.8925 126.842 44.8925 126.028C44.8925 125.175 44.8274 124.544 44.6971 124.134C44.5702 123.724 44.3 123.519 43.8866 123.519C43.4732 123.519 43.1997 123.724 43.0663 124.134C42.9328 124.544 42.8661 125.175 42.8661 126.028ZM43.8866 122.371C44.7883 122.371 45.4198 122.688 45.7811 123.323C46.1457 123.958 46.328 124.86 46.328 126.028C46.328 127.197 46.1457 128.097 45.7811 128.729C45.4198 129.36 44.7883 129.676 43.8866 129.676C42.9849 129.676 42.3518 129.36 41.9872 128.729C41.6259 128.097 41.4452 127.197 41.4452 126.028C41.4452 124.86 41.6259 123.958 41.9872 123.323C42.3518 122.688 42.9849 122.371 43.8866 122.371Z" fill="white"/>
<path d="M30.3124 129.5L29.8125 129.487L29.7994 130H30.3124V129.5ZM30.6395 128.108L31.0888 128.328L31.095 128.315L31.1004 128.302L30.6395 128.108ZM32.0458 126.609L32.3362 127.016L32.3368 127.016L32.0458 126.609ZM33.2909 125.623L33.6533 125.968L33.6558 125.965L33.2909 125.623ZM31.8993 124.036L31.4493 123.818L31.4489 123.819L31.8993 124.036ZM31.743 124.905V125.405H32.223L32.2426 124.926L31.743 124.905ZM30.3905 124.905L29.8909 124.886L29.8712 125.405H30.3905V124.905ZM30.7177 123.445L31.1601 123.678L31.1603 123.678L30.7177 123.445ZM34.4823 123.011L34.1396 123.375L34.141 123.376L34.4823 123.011ZM34.6776 126.053L34.2811 125.748L34.2793 125.75L34.6776 126.053ZM33.6669 126.956L33.3779 126.548L33.3773 126.548L33.6669 126.956ZM33.1102 127.352L33.3998 127.759L33.3998 127.759L33.1102 127.352ZM32.3925 127.889L32.0686 127.508L32.0639 127.512L32.3925 127.889ZM32.0702 128.274L31.6414 128.017L31.1871 128.774H32.0702V128.274ZM35.161 128.274H35.661V127.774H35.161V128.274ZM35.161 129.5V130H35.661V129.5H35.161ZM30.8122 129.513C30.8236 129.07 30.9179 128.678 31.0888 128.328L30.1902 127.889C29.951 128.379 29.8272 128.914 29.8125 129.487L30.8122 129.513ZM31.1004 128.302C31.2448 127.959 31.6221 127.526 32.3362 127.016L31.7553 126.202C30.9916 126.747 30.4314 127.314 30.1786 127.915L31.1004 128.302ZM32.3368 127.016C32.9727 126.561 33.4266 126.206 33.6532 125.968L32.9285 125.279C32.7776 125.437 32.4014 125.74 31.7548 126.203L32.3368 127.016ZM33.6558 125.965C34.0181 125.578 34.2255 125.122 34.2255 124.607H33.2255C33.2255 124.829 33.1431 125.05 32.926 125.281L33.6558 125.965ZM34.2255 124.607C34.2255 124.21 34.1128 123.842 33.86 123.54L33.0928 124.181C33.1721 124.276 33.2255 124.406 33.2255 124.607H34.2255ZM33.86 123.54C33.5803 123.205 33.189 123.062 32.7635 123.062V124.062C32.9565 124.062 33.0405 124.118 33.0928 124.181L33.86 123.54ZM32.7635 123.062C32.4915 123.062 32.2257 123.113 31.9898 123.242C31.7483 123.375 31.5679 123.573 31.4493 123.818L32.3493 124.254C32.3837 124.183 32.4238 124.145 32.4704 124.119C32.5226 124.091 32.6124 124.062 32.7635 124.062V123.062ZM31.4489 123.819C31.3147 124.097 31.2604 124.473 31.2435 124.885L32.2426 124.926C32.2583 124.544 32.3081 124.34 32.3497 124.253L31.4489 123.819ZM31.743 124.405H30.3905V125.405H31.743V124.405ZM30.8901 124.924C30.9113 124.366 31.0114 123.961 31.1601 123.678L30.2752 123.212C30.0333 123.672 29.9153 124.24 29.8909 124.886L30.8901 124.924ZM31.1603 123.678C31.4271 123.17 31.8918 122.886 32.6952 122.886V121.886C31.6041 121.886 30.7504 122.308 30.275 123.213L31.1603 123.678ZM32.6952 122.886C33.3475 122.886 33.81 123.065 34.1396 123.375L34.825 122.647C34.2692 122.124 33.5402 121.886 32.6952 121.886V122.886ZM34.141 123.376C34.469 123.682 34.6464 124.092 34.6464 124.656H35.6464C35.6464 123.854 35.381 123.166 34.8236 122.645L34.141 123.376ZM34.6464 124.656C34.6464 125.073 34.5249 125.431 34.2811 125.748L35.0742 126.357C35.4553 125.861 35.6464 125.288 35.6464 124.656H34.6464ZM34.2793 125.75C34.1191 125.961 33.8296 126.228 33.3779 126.548L33.9559 127.364C34.4416 127.02 34.8259 126.684 35.0759 126.355L34.2793 125.75ZM33.3773 126.548L32.8206 126.944L33.3998 127.759L33.9565 127.364L33.3773 126.548ZM32.8207 126.944C32.4729 127.191 32.2173 127.381 32.0686 127.508L32.7163 128.27C32.828 128.175 33.051 128.007 33.3998 127.759L32.8207 126.944ZM32.0639 127.512C31.8969 127.657 31.7559 127.826 31.6414 128.017L32.4989 128.532C32.5603 128.429 32.6341 128.341 32.721 128.266L32.0639 127.512ZM32.0702 128.774H35.161V127.774H32.0702V128.774ZM34.661 128.274V129.5H35.661V128.274H34.661ZM35.161 129H30.3124V130H35.161V129ZM37.4999 127.898L37.0221 128.046L37.0224 128.047L37.4999 127.898ZM39.1307 127.898L38.6519 127.754L38.6512 127.757L39.1307 127.898ZM39.1307 124.134L38.6531 124.282L38.6542 124.285L39.1307 124.134ZM40.2147 123.323L39.7802 123.571L39.7811 123.572L40.2147 123.323ZM40.2147 128.729L39.7817 128.479L39.7807 128.48L40.2147 128.729ZM36.4208 128.729L35.9868 128.977L35.9878 128.979L36.4208 128.729ZM36.4208 123.323L35.9872 123.074L35.9862 123.076L36.4208 123.323ZM36.7997 126.028C36.7997 126.859 36.8666 127.541 37.0221 128.046L37.9777 127.751C37.8662 127.39 37.7997 126.825 37.7997 126.028H36.7997ZM37.0224 128.047C37.1104 128.33 37.2592 128.589 37.4961 128.775C37.7368 128.964 38.0234 129.043 38.3202 129.043V128.043C38.2036 128.043 38.1468 128.014 38.114 127.989C38.0774 127.96 38.0228 127.896 37.9774 127.75L37.0224 128.047ZM38.3202 129.043C38.6168 129.043 38.904 128.964 39.1441 128.773C39.3805 128.585 39.5263 128.324 39.6102 128.04L38.6512 127.757C38.6082 127.902 38.5554 127.964 38.5217 127.99C38.4916 128.014 38.437 128.043 38.3202 128.043V129.043ZM39.6096 128.042C39.7608 127.54 39.826 126.859 39.826 126.028H38.826C38.826 126.826 38.7611 127.391 38.6519 127.754L39.6096 128.042ZM39.826 126.028C39.826 125.164 39.7617 124.469 39.6073 123.982L38.6542 124.285C38.7602 124.619 38.826 125.187 38.826 126.028H39.826ZM39.6084 123.986C39.5223 123.708 39.3732 123.455 39.1352 123.274C38.8955 123.092 38.6116 123.019 38.3202 123.019V124.019C38.4422 124.019 38.5001 124.048 38.5306 124.071C38.5628 124.095 38.6122 124.15 38.6531 124.282L39.6084 123.986ZM38.3202 123.019C38.0286 123.019 37.7452 123.092 37.5051 123.272C37.2667 123.451 37.1146 123.702 37.0244 123.979L37.9753 124.289C38.0186 124.156 38.07 124.099 38.1051 124.072C38.1383 124.047 38.1984 124.019 38.3202 124.019V123.019ZM37.0244 123.979C36.8656 124.467 36.7997 125.164 36.7997 126.028H37.7997C37.7997 125.187 37.8672 124.621 37.9753 124.289L37.0244 123.979ZM38.3202 122.871C39.0916 122.871 39.5298 123.131 39.7802 123.571L40.6493 123.076C40.177 122.246 39.3522 121.871 38.3202 121.871V122.871ZM39.7811 123.572C40.0836 124.099 40.2616 124.9 40.2616 126.028H41.2616C41.2616 124.819 41.075 123.817 40.6483 123.074L39.7811 123.572ZM40.2616 126.028C40.2616 127.157 40.0835 127.956 39.7817 128.479L40.6477 128.979C41.0751 128.238 41.2616 127.237 41.2616 126.028H40.2616ZM39.7807 128.48C39.5309 128.917 39.0928 129.176 38.3202 129.176V130.176C39.351 130.176 40.1759 129.803 40.6487 128.977L39.7807 128.48ZM38.3202 129.176C37.5477 129.176 37.1068 128.917 36.8538 128.479L35.9878 128.979C36.4639 129.803 37.2893 130.176 38.3202 130.176V129.176ZM36.8548 128.48C36.5554 127.957 36.3788 127.157 36.3788 126.028H35.3788C35.3788 127.237 35.5635 128.237 35.9868 128.977L36.8548 128.48ZM36.3788 126.028C36.3788 124.9 36.5553 124.098 36.8553 123.571L35.9862 123.076C35.5636 123.818 35.3788 124.82 35.3788 126.028H36.3788ZM36.8543 123.572C37.1079 123.131 37.5489 122.871 38.3202 122.871V121.871C37.2881 121.871 36.4628 122.246 35.9872 123.074L36.8543 123.572ZM43.0663 127.898L42.5885 128.046L42.5888 128.047L43.0663 127.898ZM44.6971 127.898L44.2183 127.754L44.2176 127.757L44.6971 127.898ZM44.6971 124.134L44.2195 124.282L44.2206 124.285L44.6971 124.134ZM45.7811 123.323L45.3466 123.571L45.3476 123.572L45.7811 123.323ZM45.7811 128.729L45.3481 128.479L45.3471 128.48L45.7811 128.729ZM41.9872 128.729L41.5532 128.977L41.5542 128.979L41.9872 128.729ZM41.9872 123.323L41.5536 123.074L41.5527 123.076L41.9872 123.323ZM42.3661 126.028C42.3661 126.859 42.433 127.541 42.5885 128.046L43.5441 127.751C43.4326 127.39 43.3661 126.825 43.3661 126.028H42.3661ZM42.5888 128.047C42.6768 128.33 42.8256 128.589 43.0625 128.775C43.3032 128.964 43.5898 129.043 43.8866 129.043V128.043C43.77 128.043 43.7132 128.014 43.6804 127.989C43.6439 127.96 43.5892 127.896 43.5438 127.75L42.5888 128.047ZM43.8866 129.043C44.1832 129.043 44.4704 128.964 44.7105 128.773C44.9469 128.585 45.0927 128.324 45.1767 128.04L44.2176 127.757C44.1746 127.902 44.1218 127.964 44.0881 127.99C44.058 128.014 44.0034 128.043 43.8866 128.043V129.043ZM45.176 128.042C45.3272 127.54 45.3925 126.859 45.3925 126.028H44.3925C44.3925 126.826 44.3275 127.391 44.2183 127.754L45.176 128.042ZM45.3925 126.028C45.3925 125.164 45.3281 124.469 45.1737 123.982L44.2206 124.285C44.3266 124.619 44.3925 125.187 44.3925 126.028H45.3925ZM45.1748 123.986C45.0887 123.708 44.9396 123.455 44.7016 123.274C44.4619 123.092 44.178 123.019 43.8866 123.019V124.019C44.0086 124.019 44.0665 124.048 44.097 124.071C44.1292 124.095 44.1786 124.15 44.2195 124.282L45.1748 123.986ZM43.8866 123.019C43.595 123.019 43.3116 123.092 43.0715 123.272C42.8331 123.451 42.681 123.702 42.5908 123.979L43.5417 124.289C43.585 124.156 43.6364 124.099 43.6715 124.072C43.7047 124.047 43.7648 124.019 43.8866 124.019V123.019ZM42.5908 123.979C42.432 124.467 42.3661 125.164 42.3661 126.028H43.3661C43.3661 125.187 43.4336 124.621 43.5417 124.289L42.5908 123.979ZM43.8866 122.871C44.658 122.871 45.0962 123.131 45.3466 123.571L46.2157 123.076C45.7434 122.246 44.9186 121.871 43.8866 121.871V122.871ZM45.3476 123.572C45.65 124.099 45.828 124.9 45.828 126.028H46.828C46.828 124.819 46.6414 123.817 46.2147 123.074L45.3476 123.572ZM45.828 126.028C45.828 127.157 45.6499 127.956 45.3481 128.479L46.2141 128.979C46.6415 128.238 46.828 127.237 46.828 126.028H45.828ZM45.3471 128.48C45.0973 128.917 44.6592 129.176 43.8866 129.176V130.176C44.9174 130.176 45.7423 129.803 46.2151 128.977L45.3471 128.48ZM43.8866 129.176C43.1141 129.176 42.6732 128.917 42.4202 128.479L41.5542 128.979C42.0303 129.803 42.8557 130.176 43.8866 130.176V129.176ZM42.4212 128.48C42.1218 127.957 41.9452 127.157 41.9452 126.028H40.9452C40.9452 127.237 41.1299 128.237 41.5532 128.977L42.4212 128.48ZM41.9452 126.028C41.9452 124.9 42.1217 124.098 42.4217 123.571L41.5527 123.076C41.13 123.818 40.9452 124.82 40.9452 126.028H41.9452ZM42.4208 123.572C42.6743 123.131 43.1153 122.871 43.8866 122.871V121.871C42.8545 121.871 42.0292 122.246 41.5536 123.074L42.4208 123.572Z" fill="#E2E8F0" mask="url(#path-15-outside-3_1681_390)"/>
<mask id="path-17-outside-4_1681_390" maskUnits="userSpaceOnUse" x="28.9999" y="92.5" width="18" height="9" fill="black">
<rect fill="white" x="28.9999" y="92.5" width="18" height="9"/>
<path d="M31.6307 98.3271C31.6307 98.6104 31.6763 98.8447 31.7675 99.0303C31.9367 99.3721 32.2443 99.543 32.6903 99.543C32.9637 99.543 33.2014 99.4502 33.4032 99.2646C33.6083 99.0758 33.7108 98.8057 33.7108 98.4541C33.7108 97.9886 33.522 97.6777 33.1444 97.5215C32.9296 97.4336 32.591 97.3896 32.1288 97.3896V96.3936C32.5813 96.387 32.897 96.3431 33.076 96.2617C33.3853 96.125 33.5399 95.8483 33.5399 95.4316C33.5399 95.1615 33.4602 94.9417 33.3007 94.7725C33.1444 94.6032 32.9231 94.5186 32.6366 94.5186C32.3078 94.5186 32.0653 94.6227 31.9091 94.8311C31.7561 95.0394 31.6828 95.3177 31.6893 95.666H30.3905C30.4035 95.3145 30.4637 94.9808 30.5712 94.665C30.6851 94.3883 30.8641 94.1328 31.1083 93.8984C31.2906 93.7324 31.507 93.6055 31.7577 93.5176C32.0083 93.4297 32.316 93.3857 32.6805 93.3857C33.3576 93.3857 33.9029 93.5615 34.3163 93.9131C34.733 94.2614 34.9413 94.7301 34.9413 95.3193C34.9413 95.736 34.8176 96.0876 34.5702 96.374C34.4139 96.5531 34.2512 96.6751 34.0819 96.7402C34.2089 96.7402 34.3912 96.8493 34.6288 97.0674C34.9836 97.3962 35.161 97.8454 35.161 98.415C35.161 99.014 34.9527 99.5413 34.536 99.9971C34.1226 100.45 33.509 100.676 32.6952 100.676C31.6926 100.676 30.996 100.349 30.6053 99.6943C30.4003 99.346 30.2863 98.8903 30.2635 98.3271H31.6307ZM37.2997 97.0283C37.2997 97.8421 37.3664 98.4655 37.4999 98.8984C37.6333 99.3281 37.9068 99.543 38.3202 99.543C38.7336 99.543 39.0038 99.3281 39.1307 98.8984C39.2609 98.4655 39.326 97.8421 39.326 97.0283C39.326 96.1755 39.2609 95.5439 39.1307 95.1338C39.0038 94.7236 38.7336 94.5186 38.3202 94.5186C37.9068 94.5186 37.6333 94.7236 37.4999 95.1338C37.3664 95.5439 37.2997 96.1755 37.2997 97.0283ZM38.3202 93.3711C39.2219 93.3711 39.8534 93.6885 40.2147 94.3232C40.5793 94.958 40.7616 95.8597 40.7616 97.0283C40.7616 98.1969 40.5793 99.097 40.2147 99.7285C39.8534 100.36 39.2219 100.676 38.3202 100.676C37.4185 100.676 36.7854 100.36 36.4208 99.7285C36.0594 99.097 35.8788 98.1969 35.8788 97.0283C35.8788 95.8597 36.0594 94.958 36.4208 94.3232C36.7854 93.6885 37.4185 93.3711 38.3202 93.3711ZM42.8661 97.0283C42.8661 97.8421 42.9328 98.4655 43.0663 98.8984C43.1997 99.3281 43.4732 99.543 43.8866 99.543C44.3 99.543 44.5702 99.3281 44.6971 98.8984C44.8274 98.4655 44.8925 97.8421 44.8925 97.0283C44.8925 96.1755 44.8274 95.5439 44.6971 95.1338C44.5702 94.7236 44.3 94.5186 43.8866 94.5186C43.4732 94.5186 43.1997 94.7236 43.0663 95.1338C42.9328 95.5439 42.8661 96.1755 42.8661 97.0283ZM43.8866 93.3711C44.7883 93.3711 45.4198 93.6885 45.7811 94.3232C46.1457 94.958 46.328 95.8597 46.328 97.0283C46.328 98.1969 46.1457 99.097 45.7811 99.7285C45.4198 100.36 44.7883 100.676 43.8866 100.676C42.9849 100.676 42.3518 100.36 41.9872 99.7285C41.6259 99.097 41.4452 98.1969 41.4452 97.0283C41.4452 95.8597 41.6259 94.958 41.9872 94.3232C42.3518 93.6885 42.9849 93.3711 43.8866 93.3711Z"/>
</mask>
<path d="M31.6307 98.3271C31.6307 98.6104 31.6763 98.8447 31.7675 99.0303C31.9367 99.3721 32.2443 99.543 32.6903 99.543C32.9637 99.543 33.2014 99.4502 33.4032 99.2646C33.6083 99.0758 33.7108 98.8057 33.7108 98.4541C33.7108 97.9886 33.522 97.6777 33.1444 97.5215C32.9296 97.4336 32.591 97.3896 32.1288 97.3896V96.3936C32.5813 96.387 32.897 96.3431 33.076 96.2617C33.3853 96.125 33.5399 95.8483 33.5399 95.4316C33.5399 95.1615 33.4602 94.9417 33.3007 94.7725C33.1444 94.6032 32.9231 94.5186 32.6366 94.5186C32.3078 94.5186 32.0653 94.6227 31.9091 94.8311C31.7561 95.0394 31.6828 95.3177 31.6893 95.666H30.3905C30.4035 95.3145 30.4637 94.9808 30.5712 94.665C30.6851 94.3883 30.8641 94.1328 31.1083 93.8984C31.2906 93.7324 31.507 93.6055 31.7577 93.5176C32.0083 93.4297 32.316 93.3857 32.6805 93.3857C33.3576 93.3857 33.9029 93.5615 34.3163 93.9131C34.733 94.2614 34.9413 94.7301 34.9413 95.3193C34.9413 95.736 34.8176 96.0876 34.5702 96.374C34.4139 96.5531 34.2512 96.6751 34.0819 96.7402C34.2089 96.7402 34.3912 96.8493 34.6288 97.0674C34.9836 97.3962 35.161 97.8454 35.161 98.415C35.161 99.014 34.9527 99.5413 34.536 99.9971C34.1226 100.45 33.509 100.676 32.6952 100.676C31.6926 100.676 30.996 100.349 30.6053 99.6943C30.4003 99.346 30.2863 98.8903 30.2635 98.3271H31.6307ZM37.2997 97.0283C37.2997 97.8421 37.3664 98.4655 37.4999 98.8984C37.6333 99.3281 37.9068 99.543 38.3202 99.543C38.7336 99.543 39.0038 99.3281 39.1307 98.8984C39.2609 98.4655 39.326 97.8421 39.326 97.0283C39.326 96.1755 39.2609 95.5439 39.1307 95.1338C39.0038 94.7236 38.7336 94.5186 38.3202 94.5186C37.9068 94.5186 37.6333 94.7236 37.4999 95.1338C37.3664 95.5439 37.2997 96.1755 37.2997 97.0283ZM38.3202 93.3711C39.2219 93.3711 39.8534 93.6885 40.2147 94.3232C40.5793 94.958 40.7616 95.8597 40.7616 97.0283C40.7616 98.1969 40.5793 99.097 40.2147 99.7285C39.8534 100.36 39.2219 100.676 38.3202 100.676C37.4185 100.676 36.7854 100.36 36.4208 99.7285C36.0594 99.097 35.8788 98.1969 35.8788 97.0283C35.8788 95.8597 36.0594 94.958 36.4208 94.3232C36.7854 93.6885 37.4185 93.3711 38.3202 93.3711ZM42.8661 97.0283C42.8661 97.8421 42.9328 98.4655 43.0663 98.8984C43.1997 99.3281 43.4732 99.543 43.8866 99.543C44.3 99.543 44.5702 99.3281 44.6971 98.8984C44.8274 98.4655 44.8925 97.8421 44.8925 97.0283C44.8925 96.1755 44.8274 95.5439 44.6971 95.1338C44.5702 94.7236 44.3 94.5186 43.8866 94.5186C43.4732 94.5186 43.1997 94.7236 43.0663 95.1338C42.9328 95.5439 42.8661 96.1755 42.8661 97.0283ZM43.8866 93.3711C44.7883 93.3711 45.4198 93.6885 45.7811 94.3232C46.1457 94.958 46.328 95.8597 46.328 97.0283C46.328 98.1969 46.1457 99.097 45.7811 99.7285C45.4198 100.36 44.7883 100.676 43.8866 100.676C42.9849 100.676 42.3518 100.36 41.9872 99.7285C41.6259 99.097 41.4452 98.1969 41.4452 97.0283C41.4452 95.8597 41.6259 94.958 41.9872 94.3232C42.3518 93.6885 42.9849 93.3711 43.8866 93.3711Z" fill="white"/>
<path d="M31.6307 98.3271H32.1307V97.8271H31.6307V98.3271ZM31.7675 99.0303L31.3187 99.2507L31.3194 99.2522L31.7675 99.0303ZM33.4032 99.2646L33.7416 99.6327L33.7419 99.6325L33.4032 99.2646ZM33.1444 97.5215L33.3356 97.0595L33.3337 97.0587L33.1444 97.5215ZM32.1288 97.3896H31.6288V97.8896H32.1288V97.3896ZM32.1288 96.3936L32.1216 95.8936L31.6288 95.9007V96.3936H32.1288ZM33.076 96.2617L32.8739 95.8044L32.8691 95.8065L33.076 96.2617ZM33.3007 94.7725L32.9332 95.1116L32.9368 95.1154L33.3007 94.7725ZM31.9091 94.8311L31.509 94.531L31.5061 94.5351L31.9091 94.8311ZM31.6893 95.666V96.166H32.1988L32.1892 95.6567L31.6893 95.666ZM30.3905 95.666L29.8908 95.6475L29.8716 96.166H30.3905V95.666ZM30.5712 94.665L30.1088 94.4747L30.1029 94.4892L30.0978 94.504L30.5712 94.665ZM31.1083 93.8984L30.7715 93.5286L30.762 93.5377L31.1083 93.8984ZM34.3163 93.9131L33.9924 94.294L33.9956 94.2967L34.3163 93.9131ZM34.5702 96.374L34.9469 96.7028L34.9486 96.7008L34.5702 96.374ZM34.0819 96.7402L33.9024 96.2736L34.0819 97.2402V96.7402ZM34.6288 97.0674L34.9686 96.7006L34.9669 96.699L34.6288 97.0674ZM34.536 99.9971L34.167 99.6597L34.1669 99.6598L34.536 99.9971ZM30.6053 99.6943L30.1745 99.948L30.176 99.9506L30.6053 99.6943ZM30.2635 98.3271V97.8271H29.7429L29.764 98.3474L30.2635 98.3271ZM31.1307 98.3271C31.1307 98.66 31.1837 98.976 31.3187 99.2507L32.2162 98.8098C32.1689 98.7134 32.1307 98.5607 32.1307 98.3271H31.1307ZM31.3194 99.2522C31.4451 99.506 31.6323 99.713 31.8823 99.8519C32.1277 99.9882 32.4046 100.043 32.6903 100.043V99.043C32.53 99.043 32.4302 99.0123 32.3679 98.9777C32.3103 98.9457 32.2591 98.8964 32.2155 98.8084L31.3194 99.2522ZM32.6903 100.043C33.0895 100.043 33.4478 99.9029 33.7416 99.6327L33.0648 98.8966C32.955 98.9975 32.838 99.043 32.6903 99.043V100.043ZM33.7419 99.6325C34.0753 99.3255 34.2108 98.9065 34.2108 98.4541H33.2108C33.2108 98.7048 33.1413 98.8262 33.0645 98.8968L33.7419 99.6325ZM34.2108 98.4541C34.2108 98.155 34.1501 97.865 33.9966 97.6123C33.8402 97.3549 33.6099 97.173 33.3356 97.0595L32.9532 97.9835C33.0565 98.0262 33.1094 98.0779 33.1419 98.1314C33.1772 98.1895 33.2108 98.2877 33.2108 98.4541H34.2108ZM33.3337 97.0587C33.0247 96.9323 32.6045 96.8896 32.1288 96.8896V97.8896C32.5776 97.8896 32.8345 97.9349 32.9551 97.9843L33.3337 97.0587ZM32.6288 97.3896V96.3936H31.6288V97.3896H32.6288ZM32.136 96.8935C32.5905 96.887 33.0002 96.8454 33.283 96.7169L32.8691 95.8065C32.7938 95.8408 32.5721 95.8871 32.1216 95.8936L32.136 96.8935ZM33.2782 96.719C33.525 96.6099 33.7266 96.4351 33.8604 96.1956C33.9905 95.9629 34.0399 95.6993 34.0399 95.4316H33.0399C33.0399 95.5806 33.0121 95.6638 32.9875 95.7077C32.9667 95.7449 32.9364 95.7768 32.8739 95.8044L33.2782 96.719ZM34.0399 95.4316C34.0399 95.0561 33.9255 94.7065 33.6646 94.4296L32.9368 95.1154C32.9948 95.177 33.0399 95.2669 33.0399 95.4316H34.0399ZM33.6681 94.4333C33.395 94.1375 33.0262 94.0186 32.6366 94.0186V95.0186C32.8199 95.0186 32.8938 95.0689 32.9333 95.1116L33.6681 94.4333ZM32.6366 94.0186C32.1961 94.0186 31.7841 94.1643 31.5091 94.5311L32.3091 95.1311C32.3465 95.0812 32.4195 95.0186 32.6366 95.0186V94.0186ZM31.5061 94.5351C31.2689 94.8581 31.1816 95.2552 31.1894 95.6754L32.1892 95.6567C32.1841 95.3802 32.2433 95.2207 32.3121 95.127L31.5061 94.5351ZM31.6893 95.166H30.3905V96.166H31.6893V95.166ZM30.8902 95.6845C30.9015 95.3788 30.9536 95.0934 31.0445 94.8261L30.0978 94.504C29.9739 94.8682 29.9056 95.2501 29.8908 95.6475L30.8902 95.6845ZM31.0335 94.8554C31.1177 94.6508 31.2539 94.4517 31.4545 94.2591L30.762 93.5377C30.4743 93.8139 30.2525 94.1258 30.1088 94.4747L31.0335 94.8554ZM31.4449 94.2681C31.5739 94.1507 31.7309 94.0568 31.9231 93.9894L31.5922 93.0457C31.2832 93.1541 31.0073 93.3141 30.7716 93.5288L31.4449 94.2681ZM31.9231 93.9894C32.1049 93.9257 32.3528 93.8857 32.6805 93.8857V92.8857C32.2791 92.8857 31.9118 92.9337 31.5922 93.0457L31.9231 93.9894ZM32.6805 93.8857C33.2693 93.8857 33.6901 94.0369 33.9924 94.294L34.6402 93.5322C34.1157 93.0861 33.446 92.8857 32.6805 92.8857V93.8857ZM33.9956 94.2967C34.2881 94.5412 34.4413 94.864 34.4413 95.3193H35.4413C35.4413 94.5963 35.1778 93.9816 34.637 93.5295L33.9956 94.2967ZM34.4413 95.3193C34.4413 95.629 34.3526 95.861 34.1918 96.0472L34.9486 96.7008C35.2825 96.3142 35.4413 95.843 35.4413 95.3193H34.4413ZM34.1935 96.0453C34.0747 96.1813 33.9758 96.2453 33.9024 96.2736L34.2614 97.2069C34.5266 97.1049 34.7532 96.9248 34.9469 96.7028L34.1935 96.0453ZM34.0819 97.2402C34.0621 97.2402 34.0468 97.2381 34.0371 97.2362C34.0273 97.2343 34.0219 97.2325 34.0212 97.2322C34.0208 97.2321 34.0323 97.2362 34.0572 97.2511C34.1083 97.2817 34.1854 97.3392 34.2907 97.4358L34.9669 96.699C34.8345 96.5775 34.7016 96.4714 34.5705 96.3929C34.4482 96.3197 34.2778 96.2402 34.0819 96.2402V97.2402ZM34.2889 97.4341C34.5234 97.6514 34.661 97.9576 34.661 98.415H35.661C35.661 97.7331 35.4438 97.1409 34.9686 96.7006L34.2889 97.4341ZM34.661 98.415C34.661 98.8849 34.5023 99.293 34.167 99.6597L34.905 100.334C35.4031 99.7897 35.661 99.1431 35.661 98.415H34.661ZM34.1669 99.6598C33.8765 99.9776 33.4169 100.176 32.6952 100.176V101.176C33.6011 101.176 34.3687 100.921 34.9051 100.334L34.1669 99.6598ZM32.6952 100.176C31.8054 100.176 31.3068 99.8939 31.0347 99.438L30.176 99.9506C30.6851 100.803 31.5797 101.176 32.6952 101.176V100.176ZM31.0362 99.4406C30.8861 99.1858 30.7838 98.8185 30.7631 98.3069L29.764 98.3474C29.7888 98.9621 29.9144 99.5063 30.1745 99.948L31.0362 99.4406ZM30.2635 98.8271H31.6307V97.8271H30.2635V98.8271ZM37.4999 98.8984L37.0221 99.0457L37.0224 99.0468L37.4999 98.8984ZM39.1307 98.8984L38.6519 98.7544L38.6512 98.7568L39.1307 98.8984ZM39.1307 95.1338L38.6531 95.2816L38.6542 95.2851L39.1307 95.1338ZM40.2147 94.3232L39.7802 94.5706L39.7811 94.5723L40.2147 94.3232ZM40.2147 99.7285L39.7817 99.4785L39.7807 99.4802L40.2147 99.7285ZM36.4208 99.7285L35.9868 99.9768L35.9878 99.9785L36.4208 99.7285ZM36.4208 94.3232L35.9872 94.0742L35.9862 94.0759L36.4208 94.3232ZM36.7997 97.0283C36.7997 97.859 36.8666 98.5414 37.0221 99.0457L37.9777 98.7511C37.8662 98.3896 37.7997 97.8252 37.7997 97.0283H36.7997ZM37.0224 99.0468C37.1104 99.3301 37.2592 99.5888 37.4961 99.775C37.7368 99.9641 38.0234 100.043 38.3202 100.043V99.043C38.2036 99.043 38.1468 99.0144 38.114 98.9887C38.0774 98.96 38.0228 98.8964 37.9774 98.7501L37.0224 99.0468ZM38.3202 100.043C38.6168 100.043 38.904 99.9641 39.1441 99.7732C39.3805 99.5852 39.5263 99.3243 39.6102 99.0401L38.6512 98.7568C38.6082 98.9023 38.5554 98.9637 38.5217 98.9905C38.4916 99.0144 38.437 99.043 38.3202 99.043V100.043ZM39.6096 99.0424C39.7608 98.5396 39.826 97.8586 39.826 97.0283H38.826C38.826 97.8257 38.7611 98.3914 38.6519 98.7544L39.6096 99.0424ZM39.826 97.0283C39.826 96.1641 39.7617 95.469 39.6073 94.9825L38.6542 95.2851C38.7602 95.6189 38.826 96.1868 38.826 97.0283H39.826ZM39.6084 94.9859C39.5223 94.7078 39.3732 94.4548 39.1352 94.2741C38.8955 94.0921 38.6116 94.0186 38.3202 94.0186V95.0186C38.4422 95.0186 38.5001 95.0475 38.5306 95.0706C38.5628 95.095 38.6122 95.1496 38.6531 95.2816L39.6084 94.9859ZM38.3202 94.0186C38.0286 94.0186 37.7452 94.0922 37.5051 94.2724C37.2667 94.4511 37.1146 94.7019 37.0244 94.9791L37.9753 95.2885C38.0186 95.1556 38.07 95.0987 38.1051 95.0724C38.1383 95.0474 38.1984 95.0186 38.3202 95.0186V94.0186ZM37.0244 94.9791C36.8656 95.4671 36.7997 96.1638 36.7997 97.0283H37.7997C37.7997 96.1871 37.8672 95.6208 37.9753 95.2885L37.0244 94.9791ZM38.3202 93.8711C39.0916 93.8711 39.5298 94.1307 39.7802 94.5706L40.6493 94.0759C40.177 93.2463 39.3522 92.8711 38.3202 92.8711V93.8711ZM39.7811 94.5723C40.0836 95.0989 40.2616 95.9 40.2616 97.0283H41.2616C41.2616 95.8194 41.075 94.8172 40.6483 94.0742L39.7811 94.5723ZM40.2616 97.0283C40.2616 98.1569 40.0835 98.9558 39.7817 99.4785L40.6477 99.9785C41.0751 99.2383 41.2616 98.237 41.2616 97.0283H40.2616ZM39.7807 99.4802C39.5309 99.9169 39.0928 100.176 38.3202 100.176V101.176C39.351 101.176 40.1759 100.803 40.6487 99.9768L39.7807 99.4802ZM38.3202 100.176C37.5477 100.176 37.1068 99.9168 36.8538 99.4785L35.9878 99.9785C36.4639 100.803 37.2893 101.176 38.3202 101.176V100.176ZM36.8548 99.4802C36.5554 98.957 36.3788 98.1574 36.3788 97.0283H35.3788C35.3788 98.2365 35.5635 99.237 35.9868 99.9768L36.8548 99.4802ZM36.3788 97.0283C36.3788 95.8995 36.5553 95.0977 36.8553 94.5706L35.9862 94.0759C35.5636 94.8184 35.3788 95.8199 35.3788 97.0283H36.3788ZM36.8543 94.5723C37.1079 94.1308 37.5489 93.8711 38.3202 93.8711V92.8711C37.2881 92.8711 36.4628 93.2462 35.9872 94.0742L36.8543 94.5723ZM43.0663 98.8984L42.5885 99.0457L42.5888 99.0468L43.0663 98.8984ZM44.6971 98.8984L44.2183 98.7544L44.2176 98.7568L44.6971 98.8984ZM44.6971 95.1338L44.2195 95.2816L44.2206 95.2851L44.6971 95.1338ZM45.7811 94.3232L45.3466 94.5706L45.3476 94.5723L45.7811 94.3232ZM45.7811 99.7285L45.3481 99.4785L45.3471 99.4802L45.7811 99.7285ZM41.9872 99.7285L41.5532 99.9768L41.5542 99.9785L41.9872 99.7285ZM41.9872 94.3232L41.5536 94.0742L41.5527 94.0759L41.9872 94.3232ZM42.3661 97.0283C42.3661 97.859 42.433 98.5414 42.5885 99.0457L43.5441 98.7511C43.4326 98.3896 43.3661 97.8252 43.3661 97.0283H42.3661ZM42.5888 99.0468C42.6768 99.3301 42.8256 99.5888 43.0625 99.775C43.3032 99.9641 43.5898 100.043 43.8866 100.043V99.043C43.77 99.043 43.7132 99.0144 43.6804 98.9887C43.6439 98.96 43.5892 98.8964 43.5438 98.7501L42.5888 99.0468ZM43.8866 100.043C44.1832 100.043 44.4704 99.9641 44.7105 99.7732C44.9469 99.5852 45.0927 99.3243 45.1767 99.0401L44.2176 98.7568C44.1746 98.9023 44.1218 98.9637 44.0881 98.9905C44.058 99.0144 44.0034 99.043 43.8866 99.043V100.043ZM45.176 99.0424C45.3272 98.5396 45.3925 97.8586 45.3925 97.0283H44.3925C44.3925 97.8257 44.3275 98.3914 44.2183 98.7544L45.176 99.0424ZM45.3925 97.0283C45.3925 96.1641 45.3281 95.469 45.1737 94.9825L44.2206 95.2851C44.3266 95.6189 44.3925 96.1868 44.3925 97.0283H45.3925ZM45.1748 94.9859C45.0887 94.7078 44.9396 94.4548 44.7016 94.2741C44.4619 94.0921 44.178 94.0186 43.8866 94.0186V95.0186C44.0086 95.0186 44.0665 95.0475 44.097 95.0706C44.1292 95.095 44.1786 95.1496 44.2195 95.2816L45.1748 94.9859ZM43.8866 94.0186C43.595 94.0186 43.3116 94.0922 43.0715 94.2724C42.8331 94.4511 42.681 94.7019 42.5908 94.9791L43.5417 95.2885C43.585 95.1556 43.6364 95.0987 43.6715 95.0724C43.7047 95.0474 43.7648 95.0186 43.8866 95.0186V94.0186ZM42.5908 94.9791C42.432 95.4671 42.3661 96.1638 42.3661 97.0283H43.3661C43.3661 96.1871 43.4336 95.6208 43.5417 95.2885L42.5908 94.9791ZM43.8866 93.8711C44.658 93.8711 45.0962 94.1307 45.3466 94.5706L46.2157 94.0759C45.7434 93.2463 44.9186 92.8711 43.8866 92.8711V93.8711ZM45.3476 94.5723C45.65 95.0989 45.828 95.9 45.828 97.0283H46.828C46.828 95.8194 46.6414 94.8172 46.2147 94.0742L45.3476 94.5723ZM45.828 97.0283C45.828 98.1569 45.6499 98.9558 45.3481 99.4785L46.2141 99.9785C46.6415 99.2383 46.828 98.237 46.828 97.0283H45.828ZM45.3471 99.4802C45.0973 99.9169 44.6592 100.176 43.8866 100.176V101.176C44.9174 101.176 45.7423 100.803 46.2151 99.9768L45.3471 99.4802ZM43.8866 100.176C43.1141 100.176 42.6732 99.9168 42.4202 99.4785L41.5542 99.9785C42.0303 100.803 42.8557 101.176 43.8866 101.176V100.176ZM42.4212 99.4802C42.1218 98.957 41.9452 98.1574 41.9452 97.0283H40.9452C40.9452 98.2365 41.1299 99.237 41.5532 99.9768L42.4212 99.4802ZM41.9452 97.0283C41.9452 95.8995 42.1217 95.0977 42.4217 94.5706L41.5527 94.0759C41.13 94.8184 40.9452 95.8199 40.9452 97.0283H41.9452ZM42.4208 94.5723C42.6743 94.1308 43.1153 93.8711 43.8866 93.8711V92.8711C42.8545 92.8711 42.0292 93.2462 41.5536 94.0742L42.4208 94.5723Z" fill="#E2E8F0" mask="url(#path-17-outside-4_1681_390)"/>
<mask id="path-19-outside-5_1681_390" maskUnits="userSpaceOnUse" x="28.9999" y="63.5" width="18" height="9" fill="black">
<rect fill="white" x="28.9999" y="63.5" width="18" height="9"/>
<path d="M35.2294 69.9766H34.4286V71.5H33.0663V69.9766H30.2635V68.7607L32.8661 64.4639H34.4286V68.8877H35.2294V69.9766ZM33.0663 68.8877V65.8311L31.2938 68.8877H33.0663ZM37.2997 68.0283C37.2997 68.8421 37.3664 69.4655 37.4999 69.8984C37.6333 70.3281 37.9068 70.543 38.3202 70.543C38.7336 70.543 39.0038 70.3281 39.1307 69.8984C39.2609 69.4655 39.326 68.8421 39.326 68.0283C39.326 67.1755 39.2609 66.5439 39.1307 66.1338C39.0038 65.7236 38.7336 65.5186 38.3202 65.5186C37.9068 65.5186 37.6333 65.7236 37.4999 66.1338C37.3664 66.5439 37.2997 67.1755 37.2997 68.0283ZM38.3202 64.3711C39.2219 64.3711 39.8534 64.6885 40.2147 65.3232C40.5793 65.958 40.7616 66.8597 40.7616 68.0283C40.7616 69.1969 40.5793 70.097 40.2147 70.7285C39.8534 71.36 39.2219 71.6758 38.3202 71.6758C37.4185 71.6758 36.7854 71.36 36.4208 70.7285C36.0594 70.097 35.8788 69.1969 35.8788 68.0283C35.8788 66.8597 36.0594 65.958 36.4208 65.3232C36.7854 64.6885 37.4185 64.3711 38.3202 64.3711ZM42.8661 68.0283C42.8661 68.8421 42.9328 69.4655 43.0663 69.8984C43.1997 70.3281 43.4732 70.543 43.8866 70.543C44.3 70.543 44.5702 70.3281 44.6971 69.8984C44.8274 69.4655 44.8925 68.8421 44.8925 68.0283C44.8925 67.1755 44.8274 66.5439 44.6971 66.1338C44.5702 65.7236 44.3 65.5186 43.8866 65.5186C43.4732 65.5186 43.1997 65.7236 43.0663 66.1338C42.9328 66.5439 42.8661 67.1755 42.8661 68.0283ZM43.8866 64.3711C44.7883 64.3711 45.4198 64.6885 45.7811 65.3232C46.1457 65.958 46.328 66.8597 46.328 68.0283C46.328 69.1969 46.1457 70.097 45.7811 70.7285C45.4198 71.36 44.7883 71.6758 43.8866 71.6758C42.9849 71.6758 42.3518 71.36 41.9872 70.7285C41.6259 70.097 41.4452 69.1969 41.4452 68.0283C41.4452 66.8597 41.6259 65.958 41.9872 65.3232C42.3518 64.6885 42.9849 64.3711 43.8866 64.3711Z"/>
</mask>
<path d="M35.2294 69.9766H34.4286V71.5H33.0663V69.9766H30.2635V68.7607L32.8661 64.4639H34.4286V68.8877H35.2294V69.9766ZM33.0663 68.8877V65.8311L31.2938 68.8877H33.0663ZM37.2997 68.0283C37.2997 68.8421 37.3664 69.4655 37.4999 69.8984C37.6333 70.3281 37.9068 70.543 38.3202 70.543C38.7336 70.543 39.0038 70.3281 39.1307 69.8984C39.2609 69.4655 39.326 68.8421 39.326 68.0283C39.326 67.1755 39.2609 66.5439 39.1307 66.1338C39.0038 65.7236 38.7336 65.5186 38.3202 65.5186C37.9068 65.5186 37.6333 65.7236 37.4999 66.1338C37.3664 66.5439 37.2997 67.1755 37.2997 68.0283ZM38.3202 64.3711C39.2219 64.3711 39.8534 64.6885 40.2147 65.3232C40.5793 65.958 40.7616 66.8597 40.7616 68.0283C40.7616 69.1969 40.5793 70.097 40.2147 70.7285C39.8534 71.36 39.2219 71.6758 38.3202 71.6758C37.4185 71.6758 36.7854 71.36 36.4208 70.7285C36.0594 70.097 35.8788 69.1969 35.8788 68.0283C35.8788 66.8597 36.0594 65.958 36.4208 65.3232C36.7854 64.6885 37.4185 64.3711 38.3202 64.3711ZM42.8661 68.0283C42.8661 68.8421 42.9328 69.4655 43.0663 69.8984C43.1997 70.3281 43.4732 70.543 43.8866 70.543C44.3 70.543 44.5702 70.3281 44.6971 69.8984C44.8274 69.4655 44.8925 68.8421 44.8925 68.0283C44.8925 67.1755 44.8274 66.5439 44.6971 66.1338C44.5702 65.7236 44.3 65.5186 43.8866 65.5186C43.4732 65.5186 43.1997 65.7236 43.0663 66.1338C42.9328 66.5439 42.8661 67.1755 42.8661 68.0283ZM43.8866 64.3711C44.7883 64.3711 45.4198 64.6885 45.7811 65.3232C46.1457 65.958 46.328 66.8597 46.328 68.0283C46.328 69.1969 46.1457 70.097 45.7811 70.7285C45.4198 71.36 44.7883 71.6758 43.8866 71.6758C42.9849 71.6758 42.3518 71.36 41.9872 70.7285C41.6259 70.097 41.4452 69.1969 41.4452 68.0283C41.4452 66.8597 41.6259 65.958 41.9872 65.3232C42.3518 64.6885 42.9849 64.3711 43.8866 64.3711Z" fill="white"/>
<path d="M35.2294 69.9766V70.4766H35.7294V69.9766H35.2294ZM34.4286 69.9766V69.4766H33.9286V69.9766H34.4286ZM34.4286 71.5V72H34.9286V71.5H34.4286ZM33.0663 71.5H32.5663V72H33.0663V71.5ZM33.0663 69.9766H33.5663V69.4766H33.0663V69.9766ZM30.2635 69.9766H29.7635V70.4766H30.2635V69.9766ZM30.2635 68.7607L29.8359 68.5017L29.7635 68.6211V68.7607H30.2635ZM32.8661 64.4639V63.9639H32.5844L32.4384 64.2048L32.8661 64.4639ZM34.4286 64.4639H34.9286V63.9639H34.4286V64.4639ZM34.4286 68.8877H33.9286V69.3877H34.4286V68.8877ZM35.2294 68.8877H35.7294V68.3877H35.2294V68.8877ZM33.0663 68.8877V69.3877H33.5663V68.8877H33.0663ZM33.0663 65.8311H33.5663V63.9721L32.6337 65.5802L33.0663 65.8311ZM31.2938 68.8877L30.8613 68.6369L30.4259 69.3877H31.2938V68.8877ZM35.2294 69.4766H34.4286V70.4766H35.2294V69.4766ZM33.9286 69.9766V71.5H34.9286V69.9766H33.9286ZM34.4286 71H33.0663V72H34.4286V71ZM33.5663 71.5V69.9766H32.5663V71.5H33.5663ZM33.0663 69.4766H30.2635V70.4766H33.0663V69.4766ZM30.7635 69.9766V68.7607H29.7635V69.9766H30.7635ZM30.6912 69.0198L33.2938 64.7229L32.4384 64.2048L29.8359 68.5017L30.6912 69.0198ZM32.8661 64.9639H34.4286V63.9639H32.8661V64.9639ZM33.9286 64.4639V68.8877H34.9286V64.4639H33.9286ZM34.4286 69.3877H35.2294V68.3877H34.4286V69.3877ZM34.7294 68.8877V69.9766H35.7294V68.8877H34.7294ZM33.5663 68.8877V65.8311H32.5663V68.8877H33.5663ZM32.6337 65.5802L30.8613 68.6369L31.7264 69.1385L33.4988 66.0819L32.6337 65.5802ZM31.2938 69.3877H33.0663V68.3877H31.2938V69.3877ZM37.4999 69.8984L37.0221 70.0457L37.0224 70.0468L37.4999 69.8984ZM39.1307 69.8984L38.6519 69.7544L38.6512 69.7568L39.1307 69.8984ZM39.1307 66.1338L38.6531 66.2816L38.6542 66.2851L39.1307 66.1338ZM40.2147 65.3232L39.7802 65.5706L39.7811 65.5723L40.2147 65.3232ZM40.2147 70.7285L39.7817 70.4785L39.7807 70.4802L40.2147 70.7285ZM36.4208 70.7285L35.9868 70.9768L35.9878 70.9785L36.4208 70.7285ZM36.4208 65.3232L35.9872 65.0742L35.9862 65.0759L36.4208 65.3232ZM36.7997 68.0283C36.7997 68.859 36.8666 69.5414 37.0221 70.0457L37.9777 69.7511C37.8662 69.3896 37.7997 68.8252 37.7997 68.0283H36.7997ZM37.0224 70.0468C37.1104 70.3301 37.2592 70.5888 37.4961 70.775C37.7368 70.9641 38.0234 71.043 38.3202 71.043V70.043C38.2036 70.043 38.1468 70.0144 38.114 69.9887C38.0774 69.96 38.0228 69.8964 37.9774 69.7501L37.0224 70.0468ZM38.3202 71.043C38.6168 71.043 38.904 70.9641 39.1441 70.7732C39.3805 70.5852 39.5263 70.3243 39.6102 70.0401L38.6512 69.7568C38.6082 69.9023 38.5554 69.9637 38.5217 69.9905C38.4916 70.0144 38.437 70.043 38.3202 70.043V71.043ZM39.6096 70.0424C39.7608 69.5396 39.826 68.8586 39.826 68.0283H38.826C38.826 68.8257 38.7611 69.3914 38.6519 69.7544L39.6096 70.0424ZM39.826 68.0283C39.826 67.1641 39.7617 66.469 39.6073 65.9825L38.6542 66.2851C38.7602 66.6189 38.826 67.1868 38.826 68.0283H39.826ZM39.6084 65.9859C39.5223 65.7078 39.3732 65.4548 39.1352 65.2741C38.8955 65.0921 38.6116 65.0186 38.3202 65.0186V66.0186C38.4422 66.0186 38.5001 66.0475 38.5306 66.0706C38.5628 66.095 38.6122 66.1496 38.6531 66.2816L39.6084 65.9859ZM38.3202 65.0186C38.0286 65.0186 37.7452 65.0922 37.5051 65.2724C37.2667 65.4511 37.1146 65.7019 37.0244 65.9791L37.9753 66.2885C38.0186 66.1556 38.07 66.0987 38.1051 66.0724C38.1383 66.0474 38.1984 66.0186 38.3202 66.0186V65.0186ZM37.0244 65.9791C36.8656 66.4671 36.7997 67.1638 36.7997 68.0283H37.7997C37.7997 67.1871 37.8672 66.6208 37.9753 66.2885L37.0244 65.9791ZM38.3202 64.8711C39.0916 64.8711 39.5298 65.1307 39.7802 65.5706L40.6493 65.0759C40.177 64.2463 39.3522 63.8711 38.3202 63.8711V64.8711ZM39.7811 65.5723C40.0836 66.0989 40.2616 66.9 40.2616 68.0283H41.2616C41.2616 66.8194 41.075 65.8172 40.6483 65.0742L39.7811 65.5723ZM40.2616 68.0283C40.2616 69.1569 40.0835 69.9558 39.7817 70.4785L40.6477 70.9785C41.0751 70.2383 41.2616 69.237 41.2616 68.0283H40.2616ZM39.7807 70.4802C39.5309 70.9169 39.0928 71.1758 38.3202 71.1758V72.1758C39.351 72.1758 40.1759 71.8032 40.6487 70.9768L39.7807 70.4802ZM38.3202 71.1758C37.5477 71.1758 37.1068 70.9168 36.8538 70.4785L35.9878 70.9785C36.4639 71.8032 37.2893 72.1758 38.3202 72.1758V71.1758ZM36.8548 70.4802C36.5554 69.957 36.3788 69.1574 36.3788 68.0283H35.3788C35.3788 69.2365 35.5635 70.237 35.9868 70.9768L36.8548 70.4802ZM36.3788 68.0283C36.3788 66.8995 36.5553 66.0977 36.8553 65.5706L35.9862 65.0759C35.5636 65.8184 35.3788 66.8199 35.3788 68.0283H36.3788ZM36.8543 65.5723C37.1079 65.1308 37.5489 64.8711 38.3202 64.8711V63.8711C37.2881 63.8711 36.4628 64.2462 35.9872 65.0742L36.8543 65.5723ZM43.0663 69.8984L42.5885 70.0457L42.5888 70.0468L43.0663 69.8984ZM44.6971 69.8984L44.2183 69.7544L44.2176 69.7568L44.6971 69.8984ZM44.6971 66.1338L44.2195 66.2816L44.2206 66.2851L44.6971 66.1338ZM45.7811 65.3232L45.3466 65.5706L45.3476 65.5723L45.7811 65.3232ZM45.7811 70.7285L45.3481 70.4785L45.3471 70.4802L45.7811 70.7285ZM41.9872 70.7285L41.5532 70.9768L41.5542 70.9785L41.9872 70.7285ZM41.9872 65.3232L41.5536 65.0742L41.5527 65.0759L41.9872 65.3232ZM42.3661 68.0283C42.3661 68.859 42.433 69.5414 42.5885 70.0457L43.5441 69.7511C43.4326 69.3896 43.3661 68.8252 43.3661 68.0283H42.3661ZM42.5888 70.0468C42.6768 70.3301 42.8256 70.5888 43.0625 70.775C43.3032 70.9641 43.5898 71.043 43.8866 71.043V70.043C43.77 70.043 43.7132 70.0144 43.6804 69.9887C43.6439 69.96 43.5892 69.8964 43.5438 69.7501L42.5888 70.0468ZM43.8866 71.043C44.1832 71.043 44.4704 70.9641 44.7105 70.7732C44.9469 70.5852 45.0927 70.3243 45.1767 70.0401L44.2176 69.7568C44.1746 69.9023 44.1218 69.9637 44.0881 69.9905C44.058 70.0144 44.0034 70.043 43.8866 70.043V71.043ZM45.176 70.0424C45.3272 69.5396 45.3925 68.8586 45.3925 68.0283H44.3925C44.3925 68.8257 44.3275 69.3914 44.2183 69.7544L45.176 70.0424ZM45.3925 68.0283C45.3925 67.1641 45.3281 66.469 45.1737 65.9825L44.2206 66.2851C44.3266 66.6189 44.3925 67.1868 44.3925 68.0283H45.3925ZM45.1748 65.9859C45.0887 65.7078 44.9396 65.4548 44.7016 65.2741C44.4619 65.0921 44.178 65.0186 43.8866 65.0186V66.0186C44.0086 66.0186 44.0665 66.0475 44.097 66.0706C44.1292 66.095 44.1786 66.1496 44.2195 66.2816L45.1748 65.9859ZM43.8866 65.0186C43.595 65.0186 43.3116 65.0922 43.0715 65.2724C42.8331 65.4511 42.681 65.7019 42.5908 65.9791L43.5417 66.2885C43.585 66.1556 43.6364 66.0987 43.6715 66.0724C43.7047 66.0474 43.7648 66.0186 43.8866 66.0186V65.0186ZM42.5908 65.9791C42.432 66.4671 42.3661 67.1638 42.3661 68.0283H43.3661C43.3661 67.1871 43.4336 66.6208 43.5417 66.2885L42.5908 65.9791ZM43.8866 64.8711C44.658 64.8711 45.0962 65.1307 45.3466 65.5706L46.2157 65.0759C45.7434 64.2463 44.9186 63.8711 43.8866 63.8711V64.8711ZM45.3476 65.5723C45.65 66.0989 45.828 66.9 45.828 68.0283H46.828C46.828 66.8194 46.6414 65.8172 46.2147 65.0742L45.3476 65.5723ZM45.828 68.0283C45.828 69.1569 45.6499 69.9558 45.3481 70.4785L46.2141 70.9785C46.6415 70.2383 46.828 69.237 46.828 68.0283H45.828ZM45.3471 70.4802C45.0973 70.9169 44.6592 71.1758 43.8866 71.1758V72.1758C44.9174 72.1758 45.7423 71.8032 46.2151 70.9768L45.3471 70.4802ZM43.8866 71.1758C43.1141 71.1758 42.6732 70.9168 42.4202 70.4785L41.5542 70.9785C42.0303 71.8032 42.8557 72.1758 43.8866 72.1758V71.1758ZM42.4212 70.4802C42.1218 69.957 41.9452 69.1574 41.9452 68.0283H40.9452C40.9452 69.2365 41.1299 70.237 41.5532 70.9768L42.4212 70.4802ZM41.9452 68.0283C41.9452 66.8995 42.1217 66.0977 42.4217 65.5706L41.5527 65.0759C41.13 65.8184 40.9452 66.8199 40.9452 68.0283H41.9452ZM42.4208 65.5723C42.6743 65.1308 43.1153 64.8711 43.8866 64.8711V63.8711C42.8545 63.8711 42.0292 64.2462 41.5536 65.0742L42.4208 65.5723Z" fill="#E2E8F0" mask="url(#path-19-outside-5_1681_390)"/>
<mask id="path-21-outside-6_1681_390" maskUnits="userSpaceOnUse" x="28.9998" y="34.5" width="18" height="9" fill="black">
<rect fill="white" x="28.9998" y="34.5" width="18" height="9"/>
<path d="M31.6501 40.6055C31.7055 40.9082 31.8113 41.1426 31.9675 41.3086C32.1238 41.4714 32.3516 41.5527 32.6511 41.5527C32.9962 41.5527 33.2582 41.4323 33.4373 41.1914C33.6195 40.9473 33.7107 40.6413 33.7107 40.2734C33.7107 39.9121 33.6261 39.6077 33.4568 39.3604C33.2875 39.1097 33.0238 38.9844 32.6658 38.9844C32.4965 38.9844 32.35 39.0055 32.2263 39.0479C32.0082 39.126 31.8438 39.2708 31.7332 39.4824L30.4832 39.4238L30.9812 35.5127H34.8826V36.6943H31.9871L31.7332 38.2422C31.948 38.1022 32.1156 38.0094 32.2361 37.9639C32.4379 37.889 32.6837 37.8516 32.9734 37.8516C33.5593 37.8516 34.0704 38.0485 34.5066 38.4424C34.9428 38.8363 35.1609 39.4092 35.1609 40.1611C35.1609 40.8154 34.9509 41.3997 34.531 41.9141C34.1111 42.4284 33.4828 42.6855 32.6462 42.6855C31.9724 42.6855 31.419 42.5049 30.9861 42.1436C30.5531 41.7822 30.3123 41.2695 30.2634 40.6055H31.6501ZM37.2996 39.0283C37.2996 39.8421 37.3663 40.4655 37.4998 40.8984C37.6332 41.3281 37.9067 41.543 38.3201 41.543C38.7335 41.543 39.0037 41.3281 39.1306 40.8984C39.2608 40.4655 39.3259 39.8421 39.3259 39.0283C39.3259 38.1755 39.2608 37.5439 39.1306 37.1338C39.0037 36.7236 38.7335 36.5186 38.3201 36.5186C37.9067 36.5186 37.6332 36.7236 37.4998 37.1338C37.3663 37.5439 37.2996 38.1755 37.2996 39.0283ZM38.3201 35.3711C39.2218 35.3711 39.8533 35.6885 40.2146 36.3232C40.5792 36.958 40.7615 37.8597 40.7615 39.0283C40.7615 40.1969 40.5792 41.097 40.2146 41.7285C39.8533 42.36 39.2218 42.6758 38.3201 42.6758C37.4184 42.6758 36.7852 42.36 36.4207 41.7285C36.0593 41.097 35.8787 40.1969 35.8787 39.0283C35.8787 37.8597 36.0593 36.958 36.4207 36.3232C36.7852 35.6885 37.4184 35.3711 38.3201 35.3711ZM42.866 39.0283C42.866 39.8421 42.9327 40.4655 43.0662 40.8984C43.1996 41.3281 43.4731 41.543 43.8865 41.543C44.2999 41.543 44.5701 41.3281 44.697 40.8984C44.8272 40.4655 44.8923 39.8421 44.8923 39.0283C44.8923 38.1755 44.8272 37.5439 44.697 37.1338C44.5701 36.7236 44.2999 36.5186 43.8865 36.5186C43.4731 36.5186 43.1996 36.7236 43.0662 37.1338C42.9327 37.5439 42.866 38.1755 42.866 39.0283ZM43.8865 35.3711C44.7882 35.3711 45.4197 35.6885 45.781 36.3232C46.1456 36.958 46.3279 37.8597 46.3279 39.0283C46.3279 40.1969 46.1456 41.097 45.781 41.7285C45.4197 42.36 44.7882 42.6758 43.8865 42.6758C42.9848 42.6758 42.3516 42.36 41.9871 41.7285C41.6257 41.097 41.4451 40.1969 41.4451 39.0283C41.4451 37.8597 41.6257 36.958 41.9871 36.3232C42.3516 35.6885 42.9848 35.3711 43.8865 35.3711Z"/>
</mask>
<path d="M31.6501 40.6055C31.7055 40.9082 31.8113 41.1426 31.9675 41.3086C32.1238 41.4714 32.3516 41.5527 32.6511 41.5527C32.9962 41.5527 33.2582 41.4323 33.4373 41.1914C33.6195 40.9473 33.7107 40.6413 33.7107 40.2734C33.7107 39.9121 33.6261 39.6077 33.4568 39.3604C33.2875 39.1097 33.0238 38.9844 32.6658 38.9844C32.4965 38.9844 32.35 39.0055 32.2263 39.0479C32.0082 39.126 31.8438 39.2708 31.7332 39.4824L30.4832 39.4238L30.9812 35.5127H34.8826V36.6943H31.9871L31.7332 38.2422C31.948 38.1022 32.1156 38.0094 32.2361 37.9639C32.4379 37.889 32.6837 37.8516 32.9734 37.8516C33.5593 37.8516 34.0704 38.0485 34.5066 38.4424C34.9428 38.8363 35.1609 39.4092 35.1609 40.1611C35.1609 40.8154 34.9509 41.3997 34.531 41.9141C34.1111 42.4284 33.4828 42.6855 32.6462 42.6855C31.9724 42.6855 31.419 42.5049 30.9861 42.1436C30.5531 41.7822 30.3123 41.2695 30.2634 40.6055H31.6501ZM37.2996 39.0283C37.2996 39.8421 37.3663 40.4655 37.4998 40.8984C37.6332 41.3281 37.9067 41.543 38.3201 41.543C38.7335 41.543 39.0037 41.3281 39.1306 40.8984C39.2608 40.4655 39.3259 39.8421 39.3259 39.0283C39.3259 38.1755 39.2608 37.5439 39.1306 37.1338C39.0037 36.7236 38.7335 36.5186 38.3201 36.5186C37.9067 36.5186 37.6332 36.7236 37.4998 37.1338C37.3663 37.5439 37.2996 38.1755 37.2996 39.0283ZM38.3201 35.3711C39.2218 35.3711 39.8533 35.6885 40.2146 36.3232C40.5792 36.958 40.7615 37.8597 40.7615 39.0283C40.7615 40.1969 40.5792 41.097 40.2146 41.7285C39.8533 42.36 39.2218 42.6758 38.3201 42.6758C37.4184 42.6758 36.7852 42.36 36.4207 41.7285C36.0593 41.097 35.8787 40.1969 35.8787 39.0283C35.8787 37.8597 36.0593 36.958 36.4207 36.3232C36.7852 35.6885 37.4184 35.3711 38.3201 35.3711ZM42.866 39.0283C42.866 39.8421 42.9327 40.4655 43.0662 40.8984C43.1996 41.3281 43.4731 41.543 43.8865 41.543C44.2999 41.543 44.5701 41.3281 44.697 40.8984C44.8272 40.4655 44.8923 39.8421 44.8923 39.0283C44.8923 38.1755 44.8272 37.5439 44.697 37.1338C44.5701 36.7236 44.2999 36.5186 43.8865 36.5186C43.4731 36.5186 43.1996 36.7236 43.0662 37.1338C42.9327 37.5439 42.866 38.1755 42.866 39.0283ZM43.8865 35.3711C44.7882 35.3711 45.4197 35.6885 45.781 36.3232C46.1456 36.958 46.3279 37.8597 46.3279 39.0283C46.3279 40.1969 46.1456 41.097 45.781 41.7285C45.4197 42.36 44.7882 42.6758 43.8865 42.6758C42.9848 42.6758 42.3516 42.36 41.9871 41.7285C41.6257 41.097 41.4451 40.1969 41.4451 39.0283C41.4451 37.8597 41.6257 36.958 41.9871 36.3232C42.3516 35.6885 42.9848 35.3711 43.8865 35.3711Z" fill="white"/>
<path d="M31.6501 40.6055L32.142 40.5156L32.067 40.1055H31.6501V40.6055ZM31.9675 41.3086L31.6034 41.6513L31.6068 41.6549L31.9675 41.3086ZM33.4373 41.1914L33.0366 40.8923L33.036 40.8931L33.4373 41.1914ZM33.4568 39.3604L33.0424 39.6402L33.0441 39.6427L33.4568 39.3604ZM32.2263 39.0479L32.0645 38.5747L32.0577 38.5771L32.2263 39.0479ZM31.7332 39.4824L31.7097 39.9819L32.0284 39.9968L32.1762 39.7142L31.7332 39.4824ZM30.4832 39.4238L29.9872 39.3607L29.9187 39.8979L30.4597 39.9233L30.4832 39.4238ZM30.9812 35.5127V35.0127H30.5408L30.4852 35.4495L30.9812 35.5127ZM34.8826 35.5127H35.3826V35.0127H34.8826V35.5127ZM34.8826 36.6943V37.1943H35.3826V36.6943H34.8826ZM31.9871 36.6943V36.1943H31.5624L31.4937 36.6134L31.9871 36.6943ZM31.7332 38.2422L31.2397 38.1613L31.0562 39.28L32.0061 38.6611L31.7332 38.2422ZM32.2361 37.9639L32.0622 37.4951L32.0591 37.4962L32.2361 37.9639ZM30.9861 42.1436L30.6657 42.5274L30.9861 42.1436ZM30.2634 40.6055V40.1055H29.7253L29.7648 40.6421L30.2634 40.6055ZM31.1583 40.6954C31.2251 41.0606 31.3618 41.3945 31.6034 41.6513L32.3316 40.9659C32.2608 40.8907 32.1859 40.7558 32.142 40.5156L31.1583 40.6954ZM31.6068 41.6549C31.8853 41.9449 32.2619 42.0527 32.6511 42.0527V41.0527C32.4414 41.0527 32.3623 40.9978 32.3282 40.9623L31.6068 41.6549ZM32.6511 42.0527C33.1273 42.0527 33.5502 41.8777 33.8386 41.4897L33.036 40.8931C32.9663 40.9869 32.865 41.0527 32.6511 41.0527V42.0527ZM33.8379 41.4906C34.0972 41.1433 34.2107 40.7262 34.2107 40.2734H33.2107C33.2107 40.5564 33.1419 40.7512 33.0366 40.8923L33.8379 41.4906ZM34.2107 40.2734C34.2107 39.8324 34.1064 39.4244 33.8694 39.078L33.0441 39.6427C33.1457 39.7911 33.2107 39.9918 33.2107 40.2734H34.2107ZM33.8711 39.0805C33.5908 38.6654 33.1548 38.4844 32.6658 38.4844V39.4844C32.8929 39.4844 32.9842 39.554 33.0424 39.6402L33.8711 39.0805ZM32.6658 38.4844C32.4568 38.4844 32.2531 38.5103 32.0645 38.5748L32.3882 39.5209C32.447 39.5008 32.5362 39.4844 32.6658 39.4844V38.4844ZM32.0577 38.5771C31.7174 38.699 31.457 38.9316 31.2901 39.2507L32.1762 39.7142C32.2306 39.6101 32.299 39.5529 32.3949 39.5186L32.0577 38.5771ZM31.7566 38.983L30.5066 38.9244L30.4597 39.9233L31.7097 39.9819L31.7566 38.983ZM30.9791 39.487L31.4772 35.5759L30.4852 35.4495L29.9872 39.3607L30.9791 39.487ZM30.9812 36.0127H34.8826V35.0127H30.9812V36.0127ZM34.3826 35.5127V36.6943H35.3826V35.5127H34.3826ZM34.8826 36.1943H31.9871V37.1943H34.8826V36.1943ZM31.4937 36.6134L31.2397 38.1613L32.2266 38.3231L32.4805 36.7753L31.4937 36.6134ZM32.0061 38.6611C32.2143 38.5255 32.345 38.4572 32.413 38.4315L32.0591 37.4962C31.8863 37.5616 31.6817 37.6789 31.4602 37.8233L32.0061 38.6611ZM32.41 38.4327C32.5406 38.3842 32.7238 38.3516 32.9734 38.3516V37.3516C32.6436 37.3516 32.3352 37.3938 32.0622 37.4951L32.41 38.4327ZM32.9734 38.3516C33.4351 38.3516 33.8269 38.5023 34.1715 38.8135L34.8417 38.0713C34.3139 37.5947 33.6835 37.3516 32.9734 37.3516V38.3516ZM34.1715 38.8135C34.4751 39.0876 34.6609 39.5085 34.6609 40.1611H35.6609C35.6609 39.3098 35.4105 38.5849 34.8417 38.0713L34.1715 38.8135ZM34.6609 40.1611C34.6609 40.6983 34.4919 41.1714 34.1437 41.5978L34.9183 42.2303C35.4099 41.6281 35.6609 40.9325 35.6609 40.1611H34.6609ZM34.1437 41.5978C33.8427 41.9665 33.3752 42.1855 32.6462 42.1855V43.1855C33.5904 43.1855 34.3795 42.8903 34.9183 42.2303L34.1437 41.5978ZM32.6462 42.1855C32.0657 42.1855 31.6328 42.032 31.3065 41.7597L30.6657 42.5274C31.2053 42.9778 31.8791 43.1855 32.6462 43.1855V42.1855ZM31.3065 41.7597C30.9962 41.5008 30.8029 41.1242 30.7621 40.5688L29.7648 40.6421C29.8216 41.4149 30.11 42.0637 30.6657 42.5274L31.3065 41.7597ZM30.2634 41.1055H31.6501V40.1055H30.2634V41.1055ZM37.4998 40.8984L37.0219 41.0457L37.0223 41.0468L37.4998 40.8984ZM39.1306 40.8984L38.6518 40.7544L38.6511 40.7568L39.1306 40.8984ZM39.1306 37.1338L38.653 37.2816L38.6541 37.2851L39.1306 37.1338ZM40.2146 36.3232L39.7801 36.5706L39.781 36.5723L40.2146 36.3232ZM40.2146 41.7285L39.7816 41.4785L39.7806 41.4802L40.2146 41.7285ZM36.4207 41.7285L35.9867 41.9768L35.9876 41.9785L36.4207 41.7285ZM36.4207 36.3232L35.9871 36.0742L35.9861 36.0759L36.4207 36.3232ZM36.7996 39.0283C36.7996 39.859 36.8665 40.5414 37.0219 41.0457L37.9776 40.7511C37.8661 40.3896 37.7996 39.8252 37.7996 39.0283H36.7996ZM37.0223 41.0468C37.1103 41.3301 37.2591 41.5888 37.496 41.775C37.7367 41.9641 38.0233 42.043 38.3201 42.043V41.043C38.2034 41.043 38.1466 41.0144 38.1138 40.9887C38.0773 40.96 38.0227 40.8964 37.9773 40.7501L37.0223 41.0468ZM38.3201 42.043C38.6166 42.043 38.9038 41.9641 39.144 41.7732C39.3804 41.5852 39.5262 41.3243 39.6101 41.0401L38.6511 40.7568C38.6081 40.9023 38.5553 40.9637 38.5216 40.9905C38.4915 41.0144 38.4369 41.043 38.3201 41.043V42.043ZM39.6094 41.0424C39.7607 40.5396 39.8259 39.8586 39.8259 39.0283H38.8259C38.8259 39.8257 38.761 40.3914 38.6518 40.7544L39.6094 41.0424ZM39.8259 39.0283C39.8259 38.1641 39.7616 37.469 39.6072 36.9825L38.6541 37.2851C38.76 37.6189 38.8259 38.1868 38.8259 39.0283H39.8259ZM39.6083 36.9859C39.5222 36.7078 39.3731 36.4548 39.1351 36.2741C38.8953 36.0921 38.6115 36.0186 38.3201 36.0186V37.0186C38.4421 37.0186 38.5 37.0475 38.5305 37.0706C38.5626 37.095 38.6121 37.1496 38.653 37.2816L39.6083 36.9859ZM38.3201 36.0186C38.0284 36.0186 37.7451 36.0922 37.5049 36.2724C37.2666 36.4511 37.1145 36.7019 37.0243 36.9791L37.9752 37.2885C38.0185 37.1556 38.0698 37.0987 38.1049 37.0724C38.1382 37.0474 38.1983 37.0186 38.3201 37.0186V36.0186ZM37.0243 36.9791C36.8655 37.4671 36.7996 38.1638 36.7996 39.0283H37.7996C37.7996 38.1871 37.8671 37.6208 37.9752 37.2885L37.0243 36.9791ZM38.3201 35.8711C39.0915 35.8711 39.5297 36.1307 39.7801 36.5706L40.6491 36.0759C40.1769 35.2463 39.3521 34.8711 38.3201 34.8711V35.8711ZM39.781 36.5723C40.0835 37.0989 40.2615 37.9 40.2615 39.0283H41.2615C41.2615 37.8194 41.0749 36.8172 40.6482 36.0742L39.781 36.5723ZM40.2615 39.0283C40.2615 40.1569 40.0834 40.9558 39.7816 41.4785L40.6476 41.9785C41.075 41.2383 41.2615 40.237 41.2615 39.0283H40.2615ZM39.7806 41.4802C39.5308 41.9169 39.0927 42.1758 38.3201 42.1758V43.1758C39.3509 43.1758 40.1758 42.8032 40.6486 41.9768L39.7806 41.4802ZM38.3201 42.1758C37.5476 42.1758 37.1067 41.9168 36.8537 41.4785L35.9876 41.9785C36.4638 42.8032 37.2891 43.1758 38.3201 43.1758V42.1758ZM36.8546 41.4802C36.5553 40.957 36.3787 40.1574 36.3787 39.0283H35.3787C35.3787 40.2365 35.5634 41.237 35.9867 41.9768L36.8546 41.4802ZM36.3787 39.0283C36.3787 37.8995 36.5552 37.0977 36.8552 36.5706L35.9861 36.0759C35.5635 36.8184 35.3787 37.8199 35.3787 39.0283H36.3787ZM36.8542 36.5723C37.1078 36.1308 37.5488 35.8711 38.3201 35.8711V34.8711C37.288 34.8711 36.4627 35.2462 35.9871 36.0742L36.8542 36.5723ZM43.0662 40.8984L42.5883 41.0457L42.5887 41.0468L43.0662 40.8984ZM44.697 40.8984L44.2182 40.7544L44.2175 40.7568L44.697 40.8984ZM44.697 37.1338L44.2194 37.2816L44.2205 37.2851L44.697 37.1338ZM45.781 36.3232L45.3465 36.5706L45.3474 36.5723L45.781 36.3232ZM45.781 41.7285L45.348 41.4785L45.347 41.4802L45.781 41.7285ZM41.9871 41.7285L41.5531 41.9768L41.554 41.9785L41.9871 41.7285ZM41.9871 36.3232L41.5535 36.0742L41.5525 36.0759L41.9871 36.3232ZM42.366 39.0283C42.366 39.859 42.4329 40.5414 42.5884 41.0457L43.544 40.7511C43.4325 40.3896 43.366 39.8252 43.366 39.0283H42.366ZM42.5887 41.0468C42.6767 41.3301 42.8255 41.5888 43.0624 41.775C43.3031 41.9641 43.5897 42.043 43.8865 42.043V41.043C43.7699 41.043 43.713 41.0144 43.6802 40.9887C43.6437 40.96 43.5891 40.8964 43.5437 40.7501L42.5887 41.0468ZM43.8865 42.043C44.1831 42.043 44.4702 41.9641 44.7104 41.7732C44.9468 41.5852 45.0926 41.3243 45.1765 41.0401L44.2175 40.7568C44.1745 40.9023 44.1217 40.9637 44.088 40.9905C44.0579 41.0144 44.0033 41.043 43.8865 41.043V42.043ZM45.1758 41.0424C45.3271 40.5396 45.3923 39.8586 45.3923 39.0283H44.3923C44.3923 39.8257 44.3274 40.3914 44.2182 40.7544L45.1758 41.0424ZM45.3923 39.0283C45.3923 38.1641 45.328 37.469 45.1736 36.9825L44.2205 37.2851C44.3264 37.6189 44.3923 38.1868 44.3923 39.0283H45.3923ZM45.1747 36.9859C45.0886 36.7078 44.9395 36.4548 44.7015 36.2741C44.4618 36.0921 44.1779 36.0186 43.8865 36.0186V37.0186C44.0085 37.0186 44.0664 37.0475 44.0969 37.0706C44.129 37.095 44.1785 37.1496 44.2194 37.2816L45.1747 36.9859ZM43.8865 36.0186C43.5948 36.0186 43.3115 36.0922 43.0713 36.2724C42.833 36.4511 42.6809 36.7019 42.5907 36.9791L43.5416 37.2885C43.5849 37.1556 43.6362 37.0987 43.6713 37.0724C43.7046 37.0474 43.7647 37.0186 43.8865 37.0186V36.0186ZM42.5907 36.9791C42.4319 37.4671 42.366 38.1638 42.366 39.0283H43.366C43.366 38.1871 43.4335 37.6208 43.5416 37.2885L42.5907 36.9791ZM43.8865 35.8711C44.6579 35.8711 45.0961 36.1307 45.3465 36.5706L46.2155 36.0759C45.7433 35.2463 44.9185 34.8711 43.8865 34.8711V35.8711ZM45.3474 36.5723C45.6499 37.0989 45.8279 37.9 45.8279 39.0283H46.8279C46.8279 37.8194 46.6413 36.8172 46.2146 36.0742L45.3474 36.5723ZM45.8279 39.0283C45.8279 40.1569 45.6498 40.9558 45.348 41.4785L46.214 41.9785C46.6414 41.2383 46.8279 40.237 46.8279 39.0283H45.8279ZM45.347 41.4802C45.0972 41.9169 44.6591 42.1758 43.8865 42.1758V43.1758C44.9173 43.1758 45.7422 42.8032 46.215 41.9768L45.347 41.4802ZM43.8865 42.1758C43.114 42.1758 42.6731 41.9168 42.4201 41.4785L41.554 41.9785C42.0302 42.8032 42.8555 43.1758 43.8865 43.1758V42.1758ZM42.421 41.4802C42.1217 40.957 41.9451 40.1574 41.9451 39.0283H40.9451C40.9451 40.2365 41.1298 41.237 41.5531 41.9768L42.421 41.4802ZM41.9451 39.0283C41.9451 37.8995 42.1216 37.0977 42.4216 36.5706L41.5525 36.0759C41.1299 36.8184 40.9451 37.8199 40.9451 39.0283H41.9451ZM42.4206 36.5723C42.6742 36.1308 43.1152 35.8711 43.8865 35.8711V34.8711C42.8544 34.8711 42.0291 35.2462 41.5535 36.0742L42.4206 36.5723Z" fill="#E2E8F0" mask="url(#path-21-outside-6_1681_390)"/>
<defs>
<linearGradient id="paint0_linear_1681_390" x1="15.9998" y1="222" x2="488.25" y2="27.75" gradientUnits="userSpaceOnUse">
<stop stop-color="#313860"/>
<stop offset="1" stop-color="#151928"/>
</linearGradient>
</defs>
</svg>
