<svg width="22" height="22" viewBox="0 0 22 22" fill="none" xmlns="http://www.w3.org/2000/svg">
<path d="M5.67558 11.6516V11.1516H5.17558H1.1219C0.778436 11.1516 0.5 10.8731 0.5 10.5297V1.1219C0.5 0.778435 0.778435 0.5 1.1219 0.5H20.8795C21.0442 0.5 21.2021 0.565481 21.3185 0.682017L21.6698 0.33114L21.3185 0.682018C21.4349 0.798555 21.5002 0.956584 21.5 1.12129V1.1219V10.5338V10.5344C21.5002 10.6991 21.4349 10.8571 21.3185 10.9737L21.6723 11.327L21.3185 10.9737C21.2021 11.0902 21.0442 11.1557 20.8795 11.1557H16.8258H16.3258V11.6557V20.8795C16.3258 21.2229 16.0474 21.5014 15.7039 21.5014H6.29611C6.1314 21.5014 5.97345 21.4359 5.85706 21.3194C5.74067 21.2028 5.67538 21.0448 5.67558 20.8801V20.8795V11.6516ZM1.30042 0.801791H0.800418V1.30179V10.3512V10.8512H1.30042H10.3498H10.8498V10.3512V1.30179V0.801791H10.3498H1.30042ZM15.5254 21.201H16.0254V20.701V11.6557V11.1557H15.5254H6.476H5.976V11.6557V20.701V21.201H6.476H15.5254ZM20.6996 10.8512H21.1996V10.3512V1.30179V0.801791H20.6996H11.6502H11.1502V1.30179V10.3512V10.8512H11.6502H20.6996Z" fill="#2D3748" stroke="#E2E8F0"/>
<path d="M3.62968 6.76909L3.63522 6.76389L3.64061 6.75852L5.72255 4.68207C5.72268 4.68194 5.72281 4.68181 5.72294 4.68168C5.78267 4.62292 5.87847 4.62287 5.93826 4.68152C5.93845 4.6817 5.93863 4.68188 5.93881 4.68207L8.00724 6.7505C8.05943 6.81001 8.05682 6.90024 8.00043 6.95663C7.94398 7.01308 7.85361 7.01563 7.7941 6.96326L6.17814 5.35277L5.82459 5.00041L5.47164 5.35337L3.85401 6.97099L3.8484 6.9766L3.84297 6.98239C3.8053 7.02253 3.74876 7.03897 3.69543 7.02528C3.64211 7.0116 3.60047 6.96996 3.58679 6.91663C3.5731 6.86331 3.58954 6.80677 3.62968 6.76909Z" fill="#2D3748" stroke="#E2E8F0"/>
<path d="M16.5284 5.35337L16.1749 4.99981L15.8213 5.35337L14.2113 6.96344C14.1517 7.01563 14.0615 7.01301 14.0051 6.95663C13.9487 6.90024 13.9461 6.81002 13.9983 6.7505L16.0673 4.68153C16.127 4.62292 16.2227 4.62292 16.2825 4.68153C16.2827 4.68171 16.2828 4.68189 16.283 4.68207L18.3514 6.7505C18.4036 6.81001 18.401 6.90024 18.3446 6.95663C18.2882 7.01301 18.198 7.01563 18.1385 6.96344L16.5284 5.35337Z" fill="#2D3748" stroke="#E2E8F0"/>
<path d="M10.8946 17.3214L10.8939 17.3207L8.82356 15.2517C8.77114 15.1923 8.77358 15.1019 8.82993 15.0454C8.88617 14.989 8.97628 14.9862 9.03587 15.0381L10.647 16.6492L11.0007 17.0029L11.3542 16.6491L12.9714 15.0305C12.9715 15.0305 12.9715 15.0304 12.9716 15.0304C13.0098 14.9923 13.0653 14.9775 13.1174 14.9915C13.1695 15.0055 13.2102 15.0463 13.2241 15.0984L13.7002 14.9712L13.2241 15.0984C13.238 15.1505 13.2231 15.2062 13.1849 15.2443L13.1847 15.2444L11.1071 17.3207L11.1064 17.3214C11.0784 17.3495 11.0403 17.3654 11.0005 17.3654C10.9608 17.3654 10.9227 17.3495 10.8946 17.3214Z" fill="#2D3748" stroke="#E2E8F0"/>
</svg>
